<svg xmlns="http://www.w3.org/2000/svg" xmlns:xlink="http://www.w3.org/1999/xlink" version="1.1" class="marks" width="865" height="383" viewBox="0 0 865 383"><rect width="865" height="383" fill="white"/><g fill="none" stroke-miterlimit="10" transform="translate(60,28)"><g class="mark-group role-frame root" role="graphics-object" aria-roledescription="group mark container"><g transform="translate(0,0)"><path class="background" aria-hidden="true" d="M0.5,0.5h800v300h-800Z" stroke="#ddd"/><g><g class="mark-group role-axis" role="graphics-symbol" aria-roledescription="axis" aria-label="Y-axis for a linear scale with values from 0 to 8,000"><g transform="translate(0.5,0.5)"><path class="background" aria-hidden="true" d="M0,0h0v0h0Z" pointer-events="none"/><g><g class="mark-rule role-axis-grid" pointer-events="none"><line transform="translate(0,300)" x2="800" y2="0" stroke="#ddd" stroke-width="1" opacity="1"/><line transform="translate(0,263)" x2="800" y2="0" stroke="#ddd" stroke-width="1" opacity="1"/><line transform="translate(0,225)" x2="800" y2="0" stroke="#ddd" stroke-width="1" opacity="1"/><line transform="translate(0,188)" x2="800" y2="0" stroke="#ddd" stroke-width="1" opacity="1"/><line transform="translate(0,150)" x2="800" y2="0" stroke="#ddd" stroke-width="1" opacity="1"/><line transform="translate(0,113)" x2="800" y2="0" stroke="#ddd" stroke-width="1" opacity="1"/><line transform="translate(0,75)" x2="800" y2="0" stroke="#ddd" stroke-width="1" opacity="1"/><line transform="translate(0,38)" x2="800" y2="0" stroke="#ddd" stroke-width="1" opacity="1"/><line transform="translate(0,0)" x2="800" y2="0" stroke="#ddd" stroke-width="1" opacity="1"/></g></g><path class="foreground" aria-hidden="true" d="" pointer-events="none" display="none"/></g></g><g class="mark-group role-axis" role="graphics-symbol" aria-roledescription="axis" aria-label="X-axis titled 'Ano' for a discrete scale with 12 values: 2008, 2009, 2010, 2011, 2012, ending with 2019"><g transform="translate(0.5,300.5)"><path class="background" aria-hidden="true" d="M0,0h0v0h0Z" pointer-events="none"/><g><g class="mark-rule role-axis-tick" pointer-events="none"><line transform="translate(33,0)" x2="0" y2="5" stroke="#888" stroke-width="1" opacity="1"/><line transform="translate(100,0)" x2="0" y2="5" stroke="#888" stroke-width="1" opacity="1"/><line transform="translate(166,0)" x2="0" y2="5" stroke="#888" stroke-width="1" opacity="1"/><line transform="translate(233,0)" x2="0" y2="5" stroke="#888" stroke-width="1" opacity="1"/><line transform="translate(300,0)" x2="0" y2="5" stroke="#888" stroke-width="1" opacity="1"/><line transform="translate(366,0)" x2="0" y2="5" stroke="#888" stroke-width="1" opacity="1"/><line transform="translate(433,0)" x2="0" y2="5" stroke="#888" stroke-width="1" opacity="1"/><line transform="translate(500,0)" x2="0" y2="5" stroke="#888" stroke-width="1" opacity="1"/><line transform="translate(566,0)" x2="0" y2="5" stroke="#888" stroke-width="1" opacity="1"/><line transform="translate(633,0)" x2="0" y2="5" stroke="#888" stroke-width="1" opacity="1"/><line transform="translate(700,0)" x2="0" y2="5" stroke="#888" stroke-width="1" opacity="1"/><line transform="translate(766,0)" x2="0" y2="5" stroke="#888" stroke-width="1" opacity="1"/></g><g class="mark-text role-axis-label" pointer-events="none"><text text-anchor="end" transform="translate(32.833333333333336,7) rotate(270) translate(0,4)" font-family="sans-serif" font-size="12px" fill="#000" opacity="1">2008</text><text text-anchor="end" transform="translate(99.5,7) rotate(270) translate(0,4)" font-family="sans-serif" font-size="12px" fill="#000" opacity="1">2009</text><text text-anchor="end" transform="translate(166.16666666666669,7) rotate(270) translate(0,4)" font-family="sans-serif" font-size="12px" fill="#000" opacity="1">2010</text><text text-anchor="end" transform="translate(232.83333333333334,7) rotate(270) translate(0,4)" font-family="sans-serif" font-size="12px" fill="#000" opacity="1">2011</text><text text-anchor="end" transform="translate(299.5,7) rotate(270) translate(0,4)" font-family="sans-serif" font-size="12px" fill="#000" opacity="1">2012</text><text text-anchor="end" transform="translate(366.1666666666667,7) rotate(270) translate(0,4)" font-family="sans-serif" font-size="12px" fill="#000" opacity="1">2013</text><text text-anchor="end" transform="translate(432.8333333333333,7) rotate(270) translate(0,4)" font-family="sans-serif" font-size="12px" fill="#000" opacity="1">2014</text><text text-anchor="end" transform="translate(499.5,7) rotate(270) translate(0,4)" font-family="sans-serif" font-size="12px" fill="#000" opacity="1">2015</text><text text-anchor="end" transform="translate(566.1666666666667,7) rotate(270) translate(0,4)" font-family="sans-serif" font-size="12px" fill="#000" opacity="1">2016</text><text text-anchor="end" transform="translate(632.8333333333334,7) rotate(270) translate(0,4)" font-family="sans-serif" font-size="12px" fill="#000" opacity="1">2017</text><text text-anchor="end" transform="translate(699.5000000000001,7) rotate(270) translate(0,4)" font-family="sans-serif" font-size="12px" fill="#000" opacity="1">2018</text><text text-anchor="end" transform="translate(766.1666666666667,7) rotate(270) translate(0,4)" font-family="sans-serif" font-size="12px" fill="#000" opacity="1">2019</text></g><g class="mark-rule role-axis-domain" pointer-events="none"><line transform="translate(0,0)" x2="800" y2="0" stroke="#888" stroke-width="1" opacity="1"/></g><g class="mark-text role-axis-title" pointer-events="none"><text text-anchor="middle" transform="translate(400,48)" font-family="sans-serif" font-size="12px" font-weight="bold" fill="#000" opacity="1">Ano</text></g></g><path class="foreground" aria-hidden="true" d="" pointer-events="none" display="none"/></g></g><g class="mark-group role-axis" role="graphics-symbol" aria-roledescription="axis" aria-label="Y-axis titled 'Internações - Dengue' for a linear scale with values from 0 to 8,000"><g transform="translate(0.5,0.5)"><path class="background" aria-hidden="true" d="M0,0h0v0h0Z" pointer-events="none"/><g><g class="mark-rule role-axis-tick" pointer-events="none"><line transform="translate(0,300)" x2="-5" y2="0" stroke="#888" stroke-width="1" opacity="1"/><line transform="translate(0,263)" x2="-5" y2="0" stroke="#888" stroke-width="1" opacity="1"/><line transform="translate(0,225)" x2="-5" y2="0" stroke="#888" stroke-width="1" opacity="1"/><line transform="translate(0,188)" x2="-5" y2="0" stroke="#888" stroke-width="1" opacity="1"/><line transform="translate(0,150)" x2="-5" y2="0" stroke="#888" stroke-width="1" opacity="1"/><line transform="translate(0,113)" x2="-5" y2="0" stroke="#888" stroke-width="1" opacity="1"/><line transform="translate(0,75)" x2="-5" y2="0" stroke="#888" stroke-width="1" opacity="1"/><line transform="translate(0,38)" x2="-5" y2="0" stroke="#888" stroke-width="1" opacity="1"/><line transform="translate(0,0)" x2="-5" y2="0" stroke="#888" stroke-width="1" opacity="1"/></g><g class="mark-text role-axis-label" pointer-events="none"><text text-anchor="end" transform="translate(-7,304)" font-family="sans-serif" font-size="12px" fill="#000" opacity="1">0</text><text text-anchor="end" transform="translate(-7,266.5)" font-family="sans-serif" font-size="12px" fill="#000" opacity="1">1,000</text><text text-anchor="end" transform="translate(-7,229)" font-family="sans-serif" font-size="12px" fill="#000" opacity="1">2,000</text><text text-anchor="end" transform="translate(-7,191.5)" font-family="sans-serif" font-size="12px" fill="#000" opacity="1">3,000</text><text text-anchor="end" transform="translate(-7,154)" font-family="sans-serif" font-size="12px" fill="#000" opacity="1">4,000</text><text text-anchor="end" transform="translate(-7,116.5)" font-family="sans-serif" font-size="12px" fill="#000" opacity="1">5,000</text><text text-anchor="end" transform="translate(-7,79)" font-family="sans-serif" font-size="12px" fill="#000" opacity="1">6,000</text><text text-anchor="end" transform="translate(-7,41.5)" font-family="sans-serif" font-size="12px" fill="#000" opacity="1">7,000</text><text text-anchor="end" transform="translate(-7,4)" font-family="sans-serif" font-size="12px" fill="#000" opacity="1">8,000</text></g><g class="mark-rule role-axis-domain" pointer-events="none"><line transform="translate(0,300)" x2="0" y2="-300" stroke="#888" stroke-width="1" opacity="1"/></g><g class="mark-text role-axis-title" pointer-events="none"><text text-anchor="middle" transform="translate(-42,150) rotate(-90) translate(0,-3)" font-family="sans-serif" font-size="12px" font-weight="bold" fill="#000" opacity="1">Internações - Dengue</text></g></g><path class="foreground" aria-hidden="true" d="" pointer-events="none" display="none"/></g></g><g class="mark-symbol role-mark layer_0_layer_0_marks" role="graphics-symbol" aria-roledescription="symbol mark container"><path transform="translate(33.333333333333336,294.375)" d="M2.7386127875258306,0A2.7386127875258306,2.7386127875258306,0,1,1,-2.7386127875258306,0A2.7386127875258306,2.7386127875258306,0,1,1,2.7386127875258306,0" stroke="#4c78a8" stroke-width="2" opacity="0.7"/><path transform="translate(33.333333333333336,293.775)" d="M2.7386127875258306,0A2.7386127875258306,2.7386127875258306,0,1,1,-2.7386127875258306,0A2.7386127875258306,2.7386127875258306,0,1,1,2.7386127875258306,0" stroke="#4c78a8" stroke-width="2" opacity="0.7"/><path transform="translate(33.333333333333336,187.5)" d="M2.7386127875258306,0A2.7386127875258306,2.7386127875258306,0,1,1,-2.7386127875258306,0A2.7386127875258306,2.7386127875258306,0,1,1,2.7386127875258306,0" stroke="#4c78a8" stroke-width="2" opacity="0.7"/><path transform="translate(33.333333333333336,7.612500000000011)" d="M2.7386127875258306,0A2.7386127875258306,2.7386127875258306,0,1,1,-2.7386127875258306,0A2.7386127875258306,2.7386127875258306,0,1,1,2.7386127875258306,0" stroke="#4c78a8" stroke-width="2" opacity="0.7"/><path transform="translate(166.66666666666669,22.050000000000004)" d="M2.7386127875258306,0A2.7386127875258306,2.7386127875258306,0,1,1,-2.7386127875258306,0A2.7386127875258306,2.7386127875258306,0,1,1,2.7386127875258306,0" stroke="#4c78a8" stroke-width="2" opacity="0.7"/><path transform="translate(233.33333333333334,81.1875)" d="M2.7386127875258306,0A2.7386127875258306,2.7386127875258306,0,1,1,-2.7386127875258306,0A2.7386127875258306,2.7386127875258306,0,1,1,2.7386127875258306,0" stroke="#4c78a8" stroke-width="2" opacity="0.7"/><path transform="translate(233.33333333333334,5.700000000000005)" d="M2.7386127875258306,0A2.7386127875258306,2.7386127875258306,0,1,1,-2.7386127875258306,0A2.7386127875258306,2.7386127875258306,0,1,1,2.7386127875258306,0" stroke="#4c78a8" stroke-width="2" opacity="0.7"/><path transform="translate(300,147.525)" d="M2.7386127875258306,0A2.7386127875258306,2.7386127875258306,0,1,1,-2.7386127875258306,0A2.7386127875258306,2.7386127875258306,0,1,1,2.7386127875258306,0" stroke="#4c78a8" stroke-width="2" opacity="0.7"/><path transform="translate(300,89.9625)" d="M2.7386127875258306,0A2.7386127875258306,2.7386127875258306,0,1,1,-2.7386127875258306,0A2.7386127875258306,2.7386127875258306,0,1,1,2.7386127875258306,0" stroke="#4c78a8" stroke-width="2" opacity="0.7"/><path transform="translate(433.3333333333333,197.25)" d="M2.7386127875258306,0A2.7386127875258306,2.7386127875258306,0,1,1,-2.7386127875258306,0A2.7386127875258306,2.7386127875258306,0,1,1,2.7386127875258306,0" stroke="#4c78a8" stroke-width="2" opacity="0.7"/><path transform="translate(500,151.3875)" d="M2.7386127875258306,0A2.7386127875258306,2.7386127875258306,0,1,1,-2.7386127875258306,0A2.7386127875258306,2.7386127875258306,0,1,1,2.7386127875258306,0" stroke="#4c78a8" stroke-width="2" opacity="0.7"/><path transform="translate(500,212.77499999999998)" d="M2.7386127875258306,0A2.7386127875258306,2.7386127875258306,0,1,1,-2.7386127875258306,0A2.7386127875258306,2.7386127875258306,0,1,1,2.7386127875258306,0" stroke="#4c78a8" stroke-width="2" opacity="0.7"/><path transform="translate(566.6666666666667,107.85000000000001)" d="M2.7386127875258306,0A2.7386127875258306,2.7386127875258306,0,1,1,-2.7386127875258306,0A2.7386127875258306,2.7386127875258306,0,1,1,2.7386127875258306,0" stroke="#4c78a8" stroke-width="2" opacity="0.7"/><path transform="translate(566.6666666666667,185.8125)" d="M2.7386127875258306,0A2.7386127875258306,2.7386127875258306,0,1,1,-2.7386127875258306,0A2.7386127875258306,2.7386127875258306,0,1,1,2.7386127875258306,0" stroke="#4c78a8" stroke-width="2" opacity="0.7"/><path transform="translate(633.3333333333334,217.3125)" d="M2.7386127875258306,0A2.7386127875258306,2.7386127875258306,0,1,1,-2.7386127875258306,0A2.7386127875258306,2.7386127875258306,0,1,1,2.7386127875258306,0" stroke="#4c78a8" stroke-width="2" opacity="0.7"/><path transform="translate(633.3333333333334,218.625)" d="M2.7386127875258306,0A2.7386127875258306,2.7386127875258306,0,1,1,-2.7386127875258306,0A2.7386127875258306,2.7386127875258306,0,1,1,2.7386127875258306,0" stroke="#4c78a8" stroke-width="2" opacity="0.7"/><path transform="translate(700.0000000000001,268.83750000000003)" d="M2.7386127875258306,0A2.7386127875258306,2.7386127875258306,0,1,1,-2.7386127875258306,0A2.7386127875258306,2.7386127875258306,0,1,1,2.7386127875258306,0" stroke="#4c78a8" stroke-width="2" opacity="0.7"/><path transform="translate(766.6666666666667,226.3875)" d="M2.7386127875258306,0A2.7386127875258306,2.7386127875258306,0,1,1,-2.7386127875258306,0A2.7386127875258306,2.7386127875258306,0,1,1,2.7386127875258306,0" stroke="#4c78a8" stroke-width="2" opacity="0.7"/><path transform="translate(766.6666666666667,259.425)" d="M2.7386127875258306,0A2.7386127875258306,2.7386127875258306,0,1,1,-2.7386127875258306,0A2.7386127875258306,2.7386127875258306,0,1,1,2.7386127875258306,0" stroke="#4c78a8" stroke-width="2" opacity="0.7"/></g><g class="mark-rule role-mark layer_0_layer_1_layer_0_marks" role="graphics-symbol" aria-roledescription="rule mark container"><line transform="translate(33.333333333333336,272.0625)" x2="0" y2="0" stroke="black"/><line transform="translate(100,295.0125)" x2="0" y2="-19.462499999999977" stroke="black"/><line transform="translate(166.66666666666669,292.3125)" x2="0" y2="-20.587499999999977" stroke="black"/><line transform="translate(233.33333333333334,291.4125)" x2="0" y2="-8.475000000000023" stroke="black"/><line transform="translate(300,294.4875)" x2="0" y2="-3.1125000000000114" stroke="black"/><line transform="translate(366.6666666666667,297.45)" x2="0" y2="-6.75" stroke="black"/><line transform="translate(433.3333333333333,300)" x2="0" y2="-7.537499999999966" stroke="black"/><line transform="translate(500,295.425)" x2="0" y2="-7.387499999999989" stroke="black"/><line transform="translate(566.6666666666667,300)" x2="0" y2="-4.087499999999977" stroke="black"/><line transform="translate(633.3333333333334,300)" x2="0" y2="-2.9624999999999773" stroke="black"/><line transform="translate(700.0000000000001,300)" x2="0" y2="-2.212500000000034" stroke="black"/><line transform="translate(766.6666666666667,300)" x2="0" y2="-5.324999999999989" stroke="black"/></g><g class="mark-rule role-mark layer_0_layer_1_layer_1_marks" role="graphics-symbol" aria-roledescription="rule mark container"><line transform="translate(33.333333333333336,255.1875)" x2="0" y2="0" stroke="black"/><line transform="translate(100,145.125)" x2="0" y2="-22.950000000000003" stroke="black"/><line transform="translate(166.66666666666669,157.35)" x2="0" y2="-23.212500000000006" stroke="black"/><line transform="translate(233.33333333333334,222.07500000000002)" x2="0" y2="0" stroke="black"/><line transform="translate(300,196.275)" x2="0" y2="0" stroke="black"/><line transform="translate(366.6666666666667,193.8)" x2="0" y2="-41.587500000000006" stroke="black"/><line transform="translate(433.3333333333333,248.92499999999998)" x2="0" y2="-20.099999999999966" stroke="black"/><line transform="translate(500,253.05)" x2="0" y2="0" stroke="black"/><line transform="translate(566.6666666666667,244.9125)" x2="0" y2="0" stroke="black"/><line transform="translate(633.3333333333334,277.9875)" x2="0" y2="0" stroke="black"/><line transform="translate(700.0000000000001,285.48749999999995)" x2="0" y2="-6.074999999999989" stroke="black"/><line transform="translate(766.6666666666667,272.4375)" x2="0" y2="0" stroke="black"/></g><g class="mark-rect role-mark layer_1_layer_0_marks" role="graphics-symbol" aria-roledescription="rect mark container"><path d="M8.333333333333336,255.1875h50v16.875h-50Z" fill="rgb(194, 218, 237)"/><path d="M75,145.125h50v130.425h-50Z" fill="rgb(178, 211, 232)"/><path d="M141.66666666666669,157.35h50v114.37500000000003h-50Z" fill="rgb(160, 202, 227)"/><path d="M208.33333333333334,222.07500000000002h50v60.86249999999998h-50Z" fill="rgb(141, 192, 221)"/><path d="M275,196.275h50v95.1h-50Z" fill="rgb(120, 180, 216)"/><path d="M341.6666666666667,193.8h50v96.89999999999998h-50Z" fill="rgb(101, 169, 210)"/><path d="M408.3333333333333,248.92499999999998h50v43.53750000000005h-50Z" fill="rgb(83, 156, 204)"/><path d="M475,253.05h50v34.98750000000001h-50Z" fill="rgb(66, 143, 197)"/><path d="M541.6666666666667,244.9125h50v51.00000000000003h-50Z" fill="rgb(51, 130, 190)"/><path d="M608.3333333333334,277.9875h50v19.05000000000001h-50Z" fill="rgb(37, 117, 181)"/><path d="M675.0000000000001,285.48749999999995h50v12.300000000000011h-50Z" fill="rgb(26, 102, 172)"/><path d="M741.6666666666667,272.4375h50v22.23750000000001h-50Z" fill="rgb(16, 88, 159)"/></g><g class="mark-rect role-mark layer_1_layer_1_marks" role="graphics-symbol" aria-roledescription="rect mark container"><path d="M8.333333333333336,263.83750000000003h50v1h-50Z" fill="white" opacity="0.7"/><path d="M75,264.02500000000003h50v1h-50Z" fill="white" opacity="0.7"/><path d="M141.66666666666669,253.6h50v1h-50Z" fill="white" opacity="0.7"/><path d="M208.33333333333334,260.575h50v1h-50Z" fill="white" opacity="0.7"/><path d="M275,260.0125h50v1h-50Z" fill="white" opacity="0.7"/><path d="M341.6666666666667,259.2625h50v1h-50Z" fill="white" opacity="0.7"/><path d="M408.3333333333333,274.375h50v1h-50Z" fill="white" opacity="0.7"/><path d="M475,281.3875h50v1h-50Z" fill="white" opacity="0.7"/><path d="M541.6666666666667,284.7625h50v1h-50Z" fill="white" opacity="0.7"/><path d="M608.3333333333334,288.28749999999997h50v1h-50Z" fill="white" opacity="0.7"/><path d="M675.0000000000001,291.7375h50v1h-50Z" fill="white" opacity="0.7"/><path d="M741.6666666666667,283.41249999999997h50v1h-50Z" fill="white" opacity="0.7"/></g><g class="mark-group role-title"><g transform="translate(400,-23)"><path class="background" aria-hidden="true" d="M0,0h0v0h0Z" pointer-events="none"/><g><g class="mark-text role-title-text" role="graphics-symbol" aria-roledescription="title" aria-label="Title text 'Internações por Dengue Anual'" pointer-events="none"><text text-anchor="middle" transform="translate(0,10)" font-family="sans-serif" font-size="13px" font-weight="bold" fill="#000" opacity="1">Internações por Dengue Anual</text></g></g><path class="foreground" aria-hidden="true" d="" pointer-events="none" display="none"/></g></g></g><path class="foreground" aria-hidden="true" d="" display="none"/></g></g></g></svg>