<svg xmlns="http://www.w3.org/2000/svg" xmlns:xlink="http://www.w3.org/1999/xlink" version="1.1" class="marks" width="521" height="261" viewBox="0 0 521 261"><rect width="521" height="261" fill="white"/><g fill="none" stroke-miterlimit="10" transform="translate(191,23)"><g class="mark-group role-frame root" role="graphics-object" aria-roledescription="group mark container"><g transform="translate(0,0)"><path class="background" aria-hidden="true" d="M0,0h0v0h0Z"/><g><g class="mark-group role-scope concat_0_group" role="graphics-object" aria-roledescription="group mark container"><g transform="translate(0,0)"><path class="background" aria-hidden="true" d="M0,0h100v100h-100Z" stroke="#ddd" stroke-width="0"/><g><g class="mark-group role-axis" role="graphics-symbol" aria-roledescription="axis" aria-label="X-axis for a discrete scale with 5 values: Internações - Dengue, Hidrografia, Incremento, Densidade demográfica, Extensão da rede de esgoto"><g transform="translate(0.5,100.5)"><path class="background" aria-hidden="true" d="M0,0h0v0h0Z" pointer-events="none"/><g><g class="mark-rule role-axis-tick" pointer-events="none"><line transform="translate(10,0)" x2="0" y2="5" stroke="#888" stroke-width="1" opacity="1"/><line transform="translate(30,0)" x2="0" y2="5" stroke="#888" stroke-width="1" opacity="1"/><line transform="translate(50,0)" x2="0" y2="5" stroke="#888" stroke-width="1" opacity="1"/><line transform="translate(70,0)" x2="0" y2="5" stroke="#888" stroke-width="1" opacity="1"/><line transform="translate(90,0)" x2="0" y2="5" stroke="#888" stroke-width="1" opacity="1"/></g><g class="mark-text role-axis-label" pointer-events="none"><text text-anchor="end" transform="translate(10,7) rotate(270) translate(0,3)" font-family="sans-serif" font-size="10px" fill="#000" opacity="1">Internações - Dengue</text><text text-anchor="end" transform="translate(30,7) rotate(270) translate(0,3)" font-family="sans-serif" font-size="10px" fill="#000" opacity="1">Hidrografia</text><text text-anchor="end" transform="translate(50,7) rotate(270) translate(0,3)" font-family="sans-serif" font-size="10px" fill="#000" opacity="1">Incremento</text><text text-anchor="end" transform="translate(70,7) rotate(270) translate(0,3)" font-family="sans-serif" font-size="10px" fill="#000" opacity="1">Densidade demográfica</text><text text-anchor="end" transform="translate(90,7) rotate(270) translate(0,3)" font-family="sans-serif" font-size="10px" fill="#000" opacity="1">Extensão da rede de esgoto</text></g><g class="mark-rule role-axis-domain" pointer-events="none"><line transform="translate(0,0)" x2="100" y2="0" stroke="#888" stroke-width="1" opacity="1"/></g></g><path class="foreground" aria-hidden="true" d="" pointer-events="none" display="none"/></g></g><g class="mark-group role-axis" role="graphics-symbol" aria-roledescription="axis" aria-label="Y-axis for a discrete scale with 5 values: Hidrografia, Incremento, Densidade demográfica, Extensão da rede de esgoto, População sem acesso a coleta de esgoto"><g transform="translate(0.5,0.5)"><path class="background" aria-hidden="true" d="M0,0h0v0h0Z" pointer-events="none"/><g><g class="mark-rule role-axis-tick" pointer-events="none"><line transform="translate(0,10)" x2="-5" y2="0" stroke="#888" stroke-width="1" opacity="1"/><line transform="translate(0,30)" x2="-5" y2="0" stroke="#888" stroke-width="1" opacity="1"/><line transform="translate(0,50)" x2="-5" y2="0" stroke="#888" stroke-width="1" opacity="1"/><line transform="translate(0,70)" x2="-5" y2="0" stroke="#888" stroke-width="1" opacity="1"/><line transform="translate(0,90)" x2="-5" y2="0" stroke="#888" stroke-width="1" opacity="1"/></g><g class="mark-text role-axis-label" pointer-events="none"><text text-anchor="end" transform="translate(-7,13)" font-family="sans-serif" font-size="10px" fill="#000" opacity="1">Hidrografia</text><text text-anchor="end" transform="translate(-7,33)" font-family="sans-serif" font-size="10px" fill="#000" opacity="1">Incremento</text><text text-anchor="end" transform="translate(-7,53)" font-family="sans-serif" font-size="10px" fill="#000" opacity="1">Densidade demográfica</text><text text-anchor="end" transform="translate(-7,73)" font-family="sans-serif" font-size="10px" fill="#000" opacity="1">Extensão da rede de esgoto</text><text text-anchor="end" transform="translate(-7,93)" font-family="sans-serif" font-size="10px" fill="#000" opacity="1">População sem acesso a coleta de es…</text></g><g class="mark-rule role-axis-domain" pointer-events="none"><line transform="translate(0,0)" x2="0" y2="100" stroke="#888" stroke-width="1" opacity="1"/></g></g><path class="foreground" aria-hidden="true" d="" pointer-events="none" display="none"/></g></g><g class="mark-symbol role-mark concat_0_marks" role="graphics-symbol" aria-roledescription="symbol mark container"><path transform="translate(90,90)" d="M3.6309182052953664,0A3.6309182052953664,3.6309182052953664,0,1,1,-3.6309182052953664,0A3.6309182052953664,3.6309182052953664,0,1,1,3.6309182052953664,0" fill="rgb(219, 232, 238)" stroke-width="2" opacity="0.9"/><path transform="translate(70,90)" d="M4.9228345082071545,0A4.9228345082071545,4.9228345082071545,0,1,1,-4.9228345082071545,0A4.9228345082071545,4.9228345082071545,0,1,1,4.9228345082071545,0" fill="rgb(252, 213, 162)" stroke-width="2" opacity="0.9"/><path transform="translate(50,90)" d="M8.557687170647434,0A8.557687170647434,8.557687170647434,0,1,1,-8.557687170647434,0A8.557687170647434,8.557687170647434,0,1,1,8.557687170647434,0" fill="rgb(194, 103, 13)" stroke-width="2" opacity="0.9"/><path transform="translate(30,90)" d="M8.938073127454466,0A8.938073127454466,8.938073127454466,0,1,1,-8.938073127454466,0A8.938073127454466,8.938073127454466,0,1,1,8.938073127454466,0" fill="rgb(178, 92, 10)" stroke-width="2" opacity="0.9"/><path transform="translate(10,90)" d="M6.907468591326076,0A6.907468591326076,6.907468591326076,0,1,1,-6.907468591326076,0A6.907468591326076,6.907468591326076,0,1,1,6.907468591326076,0" fill="rgb(239, 163, 72)" stroke-width="2" opacity="0.9"/><path transform="translate(30,30)" d="M7.8007292503778585,0A7.8007292503778585,7.8007292503778585,0,1,1,-7.8007292503778585,0A7.8007292503778585,7.8007292503778585,0,1,1,7.8007292503778585,0" fill="rgb(219, 131, 34)" stroke-width="2" opacity="0.9"/><path transform="translate(10,30)" d="M6.4652245888680655,0A6.4652245888680655,6.4652245888680655,0,1,1,-6.4652245888680655,0A6.4652245888680655,6.4652245888680655,0,1,1,6.4652245888680655,0" fill="rgb(245, 177, 94)" stroke-width="2" opacity="0.9"/><path transform="translate(10,10)" d="M6.199194887572314,0A6.199194887572314,6.199194887572314,0,1,1,-6.199194887572314,0A6.199194887572314,6.199194887572314,0,1,1,6.199194887572314,0" fill="rgb(249, 185, 107)" stroke-width="2" opacity="0.9"/><path transform="translate(70,70)" d="M5.923101563714608,0A5.923101563714608,5.923101563714608,0,1,1,-5.923101563714608,0A5.923101563714608,5.923101563714608,0,1,1,5.923101563714608,0" fill="rgb(251, 193, 120)" stroke-width="2" opacity="0.9"/><path transform="translate(50,70)" d="M4.486194462088029,0A4.486194462088029,4.486194462088029,0,1,1,-4.486194462088029,0A4.486194462088029,4.486194462088029,0,1,1,4.486194462088029,0" fill="rgb(204, 226, 237)" stroke-width="2" opacity="0.9"/><path transform="translate(30,70)" d="M4.572749620564525,0A4.572749620564525,4.572749620564525,0,1,1,-4.572749620564525,0A4.572749620564525,4.572749620564525,0,1,1,4.572749620564525,0" fill="rgb(202, 225, 237)" stroke-width="2" opacity="0.9"/><path transform="translate(10,70)" d="M4.0426750967678755,0A4.0426750967678755,4.0426750967678755,0,1,1,-4.0426750967678755,0A4.0426750967678755,4.0426750967678755,0,1,1,4.0426750967678755,0" fill="rgb(213, 230, 239)" stroke-width="2" opacity="0.9"/><path transform="translate(50,50)" d="M4.818059042874143,0A4.818059042874143,4.818059042874143,0,1,1,-4.818059042874143,0A4.818059042874143,4.818059042874143,0,1,1,4.818059042874143,0" fill="rgb(252, 215, 166)" stroke-width="2" opacity="0.9"/><path transform="translate(30,50)" d="M2.055584708438363,0A2.055584708438363,2.055584708438363,0,1,1,-2.055584708438363,0A2.055584708438363,2.055584708438363,0,1,1,2.055584708438363,0" fill="rgb(244, 236, 224)" stroke-width="2" opacity="0.9"/><path transform="translate(10,50)" d="M3.019707104150541,0A3.019707104150541,3.019707104150541,0,1,1,-3.019707104150541,0A3.019707104150541,3.019707104150541,0,1,1,3.019707104150541,0" fill="rgb(247, 232, 210)" stroke-width="2" opacity="0.9"/></g><g class="mark-path role-mark concat_0_voronoi" role="graphics-symbol" aria-roledescription="path mark container"><path transform="translate(0,0)" d="M100,100L80,100L80,80L100,60Z" stroke-width="0.35"/><path transform="translate(0,0)" d="M60,100L60,80L80,80L80,100Z" stroke-width="0.35"/><path transform="translate(0,0)" d="M40,100L40,80L60,80L60,100Z" stroke-width="0.35"/><path transform="translate(0,0)" d="M20,100L20,80L40,80L40,100Z" stroke-width="0.35"/><path transform="translate(0,0)" d="M0,100L0,80L20,80L20,100Z" stroke-width="0.35"/><path transform="translate(0,0)" d="M80,0L40,40L20,40L20,20L40,0Z" stroke-width="0.35"/><path transform="translate(0,0)" d="M0,20L20,20L20,40L0,40Z" stroke-width="0.35"/><path transform="translate(0,0)" d="M0,0L40,0L20,20L0,20Z" stroke-width="0.35"/><path transform="translate(0,0)" d="M100,60L80,80L60,80L60,60L100,20Z" stroke-width="0.35"/><path transform="translate(0,0)" d="M60,60L60,80L40,80L40,60Z" stroke-width="0.35"/><path transform="translate(0,0)" d="M40,60L40,80L20,80L20,60Z" stroke-width="0.35"/><path transform="translate(0,0)" d="M0,60L20,60L20,80L0,80Z" stroke-width="0.35"/><path transform="translate(0,0)" d="M100,0L100,20L60,60L40,60L40,40L80,0Z" stroke-width="0.35"/><path transform="translate(0,0)" d="M40,60L20,60L20,40L40,40Z" stroke-width="0.35"/><path transform="translate(0,0)" d="M0,40L20,40L20,60L0,60Z" stroke-width="0.35"/></g><g class="mark-group role-title"><g transform="translate(50,-17.7)"><path class="background" aria-hidden="true" d="M0,0h0v0h0Z" pointer-events="none"/><g><g class="mark-text role-title-text" role="graphics-symbol" aria-roledescription="title" aria-label="Title text 'Pearson correlations'" pointer-events="none"><text text-anchor="middle" transform="translate(0,10)" font-family="sans-serif" font-size="13px" font-weight="bold" fill="#000" opacity="1">Pearson correlations</text></g></g><path class="foreground" aria-hidden="true" d="" pointer-events="none" display="none"/></g></g></g><path class="foreground" aria-hidden="true" d="" display="none"/></g></g><g class="mark-group role-scope concat_1_group" role="graphics-object" aria-roledescription="group mark container"><g transform="translate(156,0)"><path class="background" aria-hidden="true" d="M0,0h100v100h-100Z" stroke="#ddd" stroke-width="0"/><g><g class="mark-group role-axis" role="graphics-symbol" aria-roledescription="axis" aria-label="X-axis for a discrete scale with 5 values: Internações - Dengue, Hidrografia, Incremento, Densidade demográfica, Extensão da rede de esgoto"><g transform="translate(0.5,100.5)"><path class="background" aria-hidden="true" d="M0,0h0v0h0Z" pointer-events="none"/><g><g class="mark-rule role-axis-tick" pointer-events="none"><line transform="translate(10,0)" x2="0" y2="5" stroke="#888" stroke-width="1" opacity="1"/><line transform="translate(30,0)" x2="0" y2="5" stroke="#888" stroke-width="1" opacity="1"/><line transform="translate(50,0)" x2="0" y2="5" stroke="#888" stroke-width="1" opacity="1"/><line transform="translate(70,0)" x2="0" y2="5" stroke="#888" stroke-width="1" opacity="1"/><line transform="translate(90,0)" x2="0" y2="5" stroke="#888" stroke-width="1" opacity="1"/></g><g class="mark-text role-axis-label" pointer-events="none"><text text-anchor="end" transform="translate(10,7) rotate(270) translate(0,3)" font-family="sans-serif" font-size="10px" fill="#000" opacity="1">Internações - Dengue</text><text text-anchor="end" transform="translate(30,7) rotate(270) translate(0,3)" font-family="sans-serif" font-size="10px" fill="#000" opacity="1">Hidrografia</text><text text-anchor="end" transform="translate(50,7) rotate(270) translate(0,3)" font-family="sans-serif" font-size="10px" fill="#000" opacity="1">Incremento</text><text text-anchor="end" transform="translate(70,7) rotate(270) translate(0,3)" font-family="sans-serif" font-size="10px" fill="#000" opacity="1">Densidade demográfica</text><text text-anchor="end" transform="translate(90,7) rotate(270) translate(0,3)" font-family="sans-serif" font-size="10px" fill="#000" opacity="1">Extensão da rede de esgoto</text></g><g class="mark-rule role-axis-domain" pointer-events="none"><line transform="translate(0,0)" x2="100" y2="0" stroke="#888" stroke-width="1" opacity="1"/></g></g><path class="foreground" aria-hidden="true" d="" pointer-events="none" display="none"/></g></g><g class="mark-group role-axis" role="graphics-symbol" aria-roledescription="axis" aria-label="Y-axis for a discrete scale with 5 values: Hidrografia, Incremento, Densidade demográfica, Extensão da rede de esgoto, População sem acesso a coleta de esgoto"><g transform="translate(0.5,0.5)"><path class="background" aria-hidden="true" d="M0,0h0v0h0Z" pointer-events="none"/><g><g class="mark-rule role-axis-tick" pointer-events="none"><line transform="translate(0,10)" x2="-5" y2="0" stroke="#888" stroke-width="1" opacity="1"/><line transform="translate(0,30)" x2="-5" y2="0" stroke="#888" stroke-width="1" opacity="1"/><line transform="translate(0,50)" x2="-5" y2="0" stroke="#888" stroke-width="1" opacity="1"/><line transform="translate(0,70)" x2="-5" y2="0" stroke="#888" stroke-width="1" opacity="1"/><line transform="translate(0,90)" x2="-5" y2="0" stroke="#888" stroke-width="1" opacity="1"/></g><g class="mark-rule role-axis-domain" pointer-events="none"><line transform="translate(0,0)" x2="0" y2="100" stroke="#888" stroke-width="1" opacity="1"/></g></g><path class="foreground" aria-hidden="true" d="" pointer-events="none" display="none"/></g></g><g class="mark-symbol role-mark concat_1_marks" role="graphics-symbol" aria-roledescription="symbol mark container"><path transform="translate(90,90)" d="M1.7625917746746071,0A1.7625917746746071,1.7625917746746071,0,1,1,-1.7625917746746071,0A1.7625917746746071,1.7625917746746071,0,1,1,1.7625917746746071,0" fill="rgb(244, 237, 227)" stroke-width="2" opacity="0.9"/><path transform="translate(70,90)" d="M5.1239329624407395,0A5.1239329624407395,5.1239329624407395,0,1,1,-5.1239329624407395,0A5.1239329624407395,5.1239329624407395,0,1,1,5.1239329624407395,0" fill="rgb(252, 209, 154)" stroke-width="2" opacity="0.9"/><path transform="translate(50,90)" d="M7.029012396360215,0A7.029012396360215,7.029012396360215,0,1,1,-7.029012396360215,0A7.029012396360215,7.029012396360215,0,1,1,7.029012396360215,0" fill="rgb(237, 159, 65)" stroke-width="2" opacity="0.9"/><path transform="translate(30,90)" d="M9.272725933048683,0A9.272725933048683,9.272725933048683,0,1,1,-9.272725933048683,0A9.272725933048683,9.272725933048683,0,1,1,9.272725933048683,0" fill="rgb(163, 81, 8)" stroke-width="2" opacity="0.9"/><path transform="translate(10,90)" d="M6.126357112385644,0A6.126357112385644,6.126357112385644,0,1,1,-6.126357112385644,0A6.126357112385644,6.126357112385644,0,1,1,6.126357112385644,0" fill="rgb(249, 188, 111)" stroke-width="2" opacity="0.9"/><path transform="translate(30,30)" d="M6.8557064024201875,0A6.8557064024201875,6.8557064024201875,0,1,1,-6.8557064024201875,0A6.8557064024201875,6.8557064024201875,0,1,1,6.8557064024201875,0" fill="rgb(240, 164, 74)" stroke-width="2" opacity="0.9"/><path transform="translate(10,30)" d="M5.788222106247338,0A5.788222106247338,5.788222106247338,0,1,1,-5.788222106247338,0A5.788222106247338,5.788222106247338,0,1,1,5.788222106247338,0" fill="rgb(251, 196, 126)" stroke-width="2" opacity="0.9"/><path transform="translate(10,10)" d="M6.128098948636076,0A6.128098948636076,6.128098948636076,0,1,1,-6.128098948636076,0A6.128098948636076,6.128098948636076,0,1,1,6.128098948636076,0" fill="rgb(249, 187, 110)" stroke-width="2" opacity="0.9"/><path transform="translate(70,70)" d="M8.152862246007428,0A8.152862246007428,8.152862246007428,0,1,1,-8.152862246007428,0A8.152862246007428,8.152862246007428,0,1,1,8.152862246007428,0" fill="rgb(208, 118, 24)" stroke-width="2" opacity="0.9"/><path transform="translate(50,70)" d="M7.712003191214795,0A7.712003191214795,7.712003191214795,0,1,1,-7.712003191214795,0A7.712003191214795,7.712003191214795,0,1,1,7.712003191214795,0" fill="rgb(79, 150, 196)" stroke-width="2" opacity="0.9"/><path transform="translate(30,70)" d="M2.89780665155836,0A2.89780665155836,2.89780665155836,0,1,1,-2.89780665155836,0A2.89780665155836,2.89780665155836,0,1,1,2.89780665155836,0" fill="rgb(247, 233, 212)" stroke-width="2" opacity="0.9"/><path transform="translate(10,70)" d="M4.5292214550090995,0A4.5292214550090995,4.5292214550090995,0,1,1,-4.5292214550090995,0A4.5292214550090995,4.5292214550090995,0,1,1,4.5292214550090995,0" fill="rgb(203, 225, 237)" stroke-width="2" opacity="0.9"/><path transform="translate(50,50)" d="M5.3216433216794,0A5.3216433216794,5.3216433216794,0,1,1,-5.3216433216794,0A5.3216433216794,5.3216433216794,0,1,1,5.3216433216794,0" fill="rgb(180, 214, 231)" stroke-width="2" opacity="0.9"/><path transform="translate(30,50)" d="M4.725818728749098,0A4.725818728749098,4.725818728749098,0,1,1,-4.725818728749098,0A4.725818728749098,4.725818728749098,0,1,1,4.725818728749098,0" fill="rgb(252, 216, 169)" stroke-width="2" opacity="0.9"/><path transform="translate(10,50)" d="M1.7348719988405867,0A1.7348719988405867,1.7348719988405867,0,1,1,-1.7348719988405867,0A1.7348719988405867,1.7348719988405867,0,1,1,1.7348719988405867,0" fill="rgb(237, 238, 236)" stroke-width="2" opacity="0.9"/></g><g class="mark-path role-mark concat_1_voronoi" role="graphics-symbol" aria-roledescription="path mark container"><path transform="translate(0,0)" d="M100,100L80,100L80,80L100,60Z" stroke-width="0.35"/><path transform="translate(0,0)" d="M60,100L60,80L80,80L80,100Z" stroke-width="0.35"/><path transform="translate(0,0)" d="M40,100L40,80L60,80L60,100Z" stroke-width="0.35"/><path transform="translate(0,0)" d="M20,100L20,80L40,80L40,100Z" stroke-width="0.35"/><path transform="translate(0,0)" d="M0,100L0,80L20,80L20,100Z" stroke-width="0.35"/><path transform="translate(0,0)" d="M80,0L40,40L20,40L20,20L40,0Z" stroke-width="0.35"/><path transform="translate(0,0)" d="M0,20L20,20L20,40L0,40Z" stroke-width="0.35"/><path transform="translate(0,0)" d="M0,0L40,0L20,20L0,20Z" stroke-width="0.35"/><path transform="translate(0,0)" d="M100,60L80,80L60,80L60,60L100,20Z" stroke-width="0.35"/><path transform="translate(0,0)" d="M60,60L60,80L40,80L40,60Z" stroke-width="0.35"/><path transform="translate(0,0)" d="M40,60L40,80L20,80L20,60Z" stroke-width="0.35"/><path transform="translate(0,0)" d="M0,60L20,60L20,80L0,80Z" stroke-width="0.35"/><path transform="translate(0,0)" d="M100,0L100,20L60,60L40,60L40,40L80,0Z" stroke-width="0.35"/><path transform="translate(0,0)" d="M40,60L20,60L20,40L40,40Z" stroke-width="0.35"/><path transform="translate(0,0)" d="M0,40L20,40L20,60L0,60Z" stroke-width="0.35"/></g><g class="mark-group role-title"><g transform="translate(50,-17.7)"><path class="background" aria-hidden="true" d="M0,0h0v0h0Z" pointer-events="none"/><g><g class="mark-text role-title-text" role="graphics-symbol" aria-roledescription="title" aria-label="Title text 'Spearman correlations'" pointer-events="none"><text text-anchor="middle" transform="translate(0,10)" font-family="sans-serif" font-size="13px" font-weight="bold" fill="#000" opacity="1">Spearman correlations</text></g></g><path class="foreground" aria-hidden="true" d="" pointer-events="none" display="none"/></g></g></g><path class="foreground" aria-hidden="true" d="" display="none"/></g></g><g class="mark-group role-legend" role="graphics-symbol" aria-roledescription="legend" aria-label="Gradient legend for fill color with values from −1.0 to 1.0"><g transform="translate(295,0)"><path class="background" aria-hidden="true" d="M0,0h30v100h-30Z" pointer-events="none"/><g><g class="mark-group role-legend-entry"><g transform="translate(0,0)"><path class="background" aria-hidden="true" d="M0,0h0v0h0Z" pointer-events="none"/><g><g class="mark-rect role-legend-gradient" pointer-events="none"><path d="M0,0h16v100h-16Z" fill="url(#gradient_0)" stroke="#ddd" stroke-width="0" opacity="0.9"/></g><g class="mark-text role-legend-label" pointer-events="none"><text text-anchor="start" transform="translate(18,98)" font-family="sans-serif" font-size="10px" fill="#000" opacity="1">−1</text><text text-anchor="start" transform="translate(18,53)" font-family="sans-serif" font-size="10px" fill="#000" opacity="1">0</text><text text-anchor="start" transform="translate(18,8)" font-family="sans-serif" font-size="10px" fill="#000" opacity="1">1</text></g></g><path class="foreground" aria-hidden="true" d="" pointer-events="none" display="none"/></g></g></g><path class="foreground" aria-hidden="true" d="" pointer-events="none" display="none"/></g></g></g><path class="foreground" aria-hidden="true" d="" display="none"/></g></g></g><defs><linearGradient id="gradient_0" x1="0" x2="0" y1="1" y2="0"><stop offset="0" stop-color="rgb(19, 75, 133)"/><stop offset="0.04999999999999999" stop-color="rgb(33, 98, 156)"/><stop offset="0.09999999999999998" stop-color="rgb(47, 120, 179)"/><stop offset="0.15000000000000002" stop-color="rgb(70, 141, 191)"/><stop offset="0.2" stop-color="rgb(93, 162, 203)"/><stop offset="0.25" stop-color="rgb(125, 182, 214)"/><stop offset="0.3" stop-color="rgb(157, 202, 225)"/><stop offset="0.35" stop-color="rgb(184, 216, 232)"/><stop offset="0.4" stop-color="rgb(210, 229, 239)"/><stop offset="0.45" stop-color="rgb(226, 235, 237)"/><stop offset="0.5" stop-color="rgb(242, 240, 235)"/><stop offset="0.55" stop-color="rgb(247, 232, 211)"/><stop offset="0.6" stop-color="rgb(252, 224, 186)"/><stop offset="0.65" stop-color="rgb(252, 208, 151)"/><stop offset="0.7" stop-color="rgb(251, 191, 116)"/><stop offset="0.75" stop-color="rgb(242, 169, 82)"/><stop offset="0.8" stop-color="rgb(232, 147, 47)"/><stop offset="0.85" stop-color="rgb(215, 126, 30)"/><stop offset="0.9" stop-color="rgb(197, 105, 13)"/><stop offset="0.95" stop-color="rgb(175, 90, 10)"/><stop offset="1" stop-color="rgb(153, 74, 7)"/></linearGradient></defs></svg>