<svg xmlns="http://www.w3.org/2000/svg" xmlns:xlink="http://www.w3.org/1999/xlink" version="1.1" class="marks" width="720" height="414" viewBox="0 0 720 414"><rect width="720" height="414" fill="white"/><g fill="none" stroke-miterlimit="10" transform="translate(191,23)"><g class="mark-group role-frame root" role="graphics-object" aria-roledescription="group mark container"><g transform="translate(0,0)"><path class="background" aria-hidden="true" d="M0,0h0v0h0Z"/><g><g class="mark-group role-scope concat_0_group" role="graphics-object" aria-roledescription="group mark container"><g transform="translate(0,0)"><path class="background" aria-hidden="true" d="M0,0h220v220h-220Z" stroke="#ddd" stroke-width="0"/><g><g class="mark-group role-axis" role="graphics-symbol" aria-roledescription="axis" aria-label="X-axis for a discrete scale with 11 values: Internações Ano Seguinte - Dengue, Internações - Dengue, Percentual Desmatado, Hidrografia, Área de Não Floresta, ending with Extensão da rede de esgoto"><g transform="translate(0.5,220.5)"><path class="background" aria-hidden="true" d="M0,0h0v0h0Z" pointer-events="none"/><g><g class="mark-rule role-axis-tick" pointer-events="none"><line transform="translate(10,0)" x2="0" y2="5" stroke="#888" stroke-width="1" opacity="1"/><line transform="translate(30,0)" x2="0" y2="5" stroke="#888" stroke-width="1" opacity="1"/><line transform="translate(50,0)" x2="0" y2="5" stroke="#888" stroke-width="1" opacity="1"/><line transform="translate(70,0)" x2="0" y2="5" stroke="#888" stroke-width="1" opacity="1"/><line transform="translate(90,0)" x2="0" y2="5" stroke="#888" stroke-width="1" opacity="1"/><line transform="translate(110,0)" x2="0" y2="5" stroke="#888" stroke-width="1" opacity="1"/><line transform="translate(130,0)" x2="0" y2="5" stroke="#888" stroke-width="1" opacity="1"/><line transform="translate(150,0)" x2="0" y2="5" stroke="#888" stroke-width="1" opacity="1"/><line transform="translate(170,0)" x2="0" y2="5" stroke="#888" stroke-width="1" opacity="1"/><line transform="translate(190,0)" x2="0" y2="5" stroke="#888" stroke-width="1" opacity="1"/><line transform="translate(210,0)" x2="0" y2="5" stroke="#888" stroke-width="1" opacity="1"/></g><g class="mark-text role-axis-label" pointer-events="none"><text text-anchor="end" transform="translate(10,7) rotate(270) translate(0,3)" font-family="sans-serif" font-size="10px" fill="#000" opacity="1">Internações Ano Seguinte - Dengue</text><text text-anchor="end" transform="translate(30,7) rotate(270) translate(0,3)" font-family="sans-serif" font-size="10px" fill="#000" opacity="1">Internações - Dengue</text><text text-anchor="end" transform="translate(50,7) rotate(270) translate(0,3)" font-family="sans-serif" font-size="10px" fill="#000" opacity="1">Percentual Desmatado</text><text text-anchor="end" transform="translate(70,7) rotate(270) translate(0,3)" font-family="sans-serif" font-size="10px" fill="#000" opacity="1">Hidrografia</text><text text-anchor="end" transform="translate(90,7) rotate(270) translate(0,3)" font-family="sans-serif" font-size="10px" fill="#000" opacity="1">Área de Não Floresta</text><text text-anchor="end" transform="translate(110,7) rotate(270) translate(0,3)" font-family="sans-serif" font-size="10px" fill="#000" opacity="1">Floresta</text><text text-anchor="end" transform="translate(130,7) rotate(270) translate(0,3)" font-family="sans-serif" font-size="10px" fill="#000" opacity="1">Incremento</text><text text-anchor="end" transform="translate(150,7) rotate(270) translate(0,3)" font-family="sans-serif" font-size="10px" fill="#000" opacity="1">Desmatado</text><text text-anchor="end" transform="translate(170,7) rotate(270) translate(0,3)" font-family="sans-serif" font-size="10px" fill="#000" opacity="1">Área (Km2)</text><text text-anchor="end" transform="translate(190,7) rotate(270) translate(0,3)" font-family="sans-serif" font-size="10px" fill="#000" opacity="1">Densidade demográfica</text><text text-anchor="end" transform="translate(210,7) rotate(270) translate(0,3)" font-family="sans-serif" font-size="10px" fill="#000" opacity="1">Extensão da rede de esgoto</text></g><g class="mark-rule role-axis-domain" pointer-events="none"><line transform="translate(0,0)" x2="220" y2="0" stroke="#888" stroke-width="1" opacity="1"/></g></g><path class="foreground" aria-hidden="true" d="" pointer-events="none" display="none"/></g></g><g class="mark-group role-axis" role="graphics-symbol" aria-roledescription="axis" aria-label="Y-axis for a discrete scale with 11 values: Internações - Dengue, Percentual Desmatado, Hidrografia, Área de Não Floresta, Floresta, ending with População sem acesso a coleta de esgoto"><g transform="translate(0.5,0.5)"><path class="background" aria-hidden="true" d="M0,0h0v0h0Z" pointer-events="none"/><g><g class="mark-rule role-axis-tick" pointer-events="none"><line transform="translate(0,10)" x2="-5" y2="0" stroke="#888" stroke-width="1" opacity="1"/><line transform="translate(0,30)" x2="-5" y2="0" stroke="#888" stroke-width="1" opacity="1"/><line transform="translate(0,50)" x2="-5" y2="0" stroke="#888" stroke-width="1" opacity="1"/><line transform="translate(0,70)" x2="-5" y2="0" stroke="#888" stroke-width="1" opacity="1"/><line transform="translate(0,90)" x2="-5" y2="0" stroke="#888" stroke-width="1" opacity="1"/><line transform="translate(0,110)" x2="-5" y2="0" stroke="#888" stroke-width="1" opacity="1"/><line transform="translate(0,130)" x2="-5" y2="0" stroke="#888" stroke-width="1" opacity="1"/><line transform="translate(0,150)" x2="-5" y2="0" stroke="#888" stroke-width="1" opacity="1"/><line transform="translate(0,170)" x2="-5" y2="0" stroke="#888" stroke-width="1" opacity="1"/><line transform="translate(0,190)" x2="-5" y2="0" stroke="#888" stroke-width="1" opacity="1"/><line transform="translate(0,210)" x2="-5" y2="0" stroke="#888" stroke-width="1" opacity="1"/></g><g class="mark-text role-axis-label" pointer-events="none"><text text-anchor="end" transform="translate(-7,13)" font-family="sans-serif" font-size="10px" fill="#000" opacity="1">Internações - Dengue</text><text text-anchor="end" transform="translate(-7,33)" font-family="sans-serif" font-size="10px" fill="#000" opacity="1">Percentual Desmatado</text><text text-anchor="end" transform="translate(-7,53)" font-family="sans-serif" font-size="10px" fill="#000" opacity="1">Hidrografia</text><text text-anchor="end" transform="translate(-7,73)" font-family="sans-serif" font-size="10px" fill="#000" opacity="1">Área de Não Floresta</text><text text-anchor="end" transform="translate(-7,93)" font-family="sans-serif" font-size="10px" fill="#000" opacity="1">Floresta</text><text text-anchor="end" transform="translate(-7,113)" font-family="sans-serif" font-size="10px" fill="#000" opacity="1">Incremento</text><text text-anchor="end" transform="translate(-7,133)" font-family="sans-serif" font-size="10px" fill="#000" opacity="1">Desmatado</text><text text-anchor="end" transform="translate(-7,153)" font-family="sans-serif" font-size="10px" fill="#000" opacity="1">Área (Km2)</text><text text-anchor="end" transform="translate(-7,173)" font-family="sans-serif" font-size="10px" fill="#000" opacity="1">Densidade demográfica</text><text text-anchor="end" transform="translate(-7,193)" font-family="sans-serif" font-size="10px" fill="#000" opacity="1">Extensão da rede de esgoto</text><text text-anchor="end" transform="translate(-7,213)" font-family="sans-serif" font-size="10px" fill="#000" opacity="1">População sem acesso a coleta de es…</text></g><g class="mark-rule role-axis-domain" pointer-events="none"><line transform="translate(0,0)" x2="0" y2="220" stroke="#888" stroke-width="1" opacity="1"/></g></g><path class="foreground" aria-hidden="true" d="" pointer-events="none" display="none"/></g></g><g class="mark-symbol role-mark concat_0_marks" role="graphics-symbol" aria-roledescription="symbol mark container"><path transform="translate(10,70)" d="M1.4908165623392389,0A1.4908165623392389,1.4908165623392389,0,1,1,-1.4908165623392389,0A1.4908165623392389,1.4908165623392389,0,1,1,1.4908165623392389,0" fill="rgb(243, 238, 229)" stroke-width="2" opacity="0.9"/><path transform="translate(30,70)" d="M2.64323281889426,0A2.64323281889426,2.64323281889426,0,1,1,-2.64323281889426,0A2.64323281889426,2.64323281889426,0,1,1,2.64323281889426,0" fill="rgb(246, 234, 216)" stroke-width="2" opacity="0.9"/><path transform="translate(50,70)" d="M3.825433709518814,0A3.825433709518814,3.825433709518814,0,1,1,-3.825433709518814,0A3.825433709518814,3.825433709518814,0,1,1,3.825433709518814,0" fill="rgb(250, 227, 195)" stroke-width="2" opacity="0.9"/><path transform="translate(70,70)" d="M2.4037501498114127,0A2.4037501498114127,2.4037501498114127,0,1,1,-2.4037501498114127,0A2.4037501498114127,2.4037501498114127,0,1,1,2.4037501498114127,0" fill="rgb(232, 236, 236)" stroke-width="2" opacity="0.9"/><path transform="translate(90,150)" d="M2.7799857706792643,0A2.7799857706792643,2.7799857706792643,0,1,1,-2.7799857706792643,0A2.7799857706792643,2.7799857706792643,0,1,1,2.7799857706792643,0" fill="rgb(246, 233, 214)" stroke-width="2" opacity="0.9"/><path transform="translate(150,150)" d="M9.141836740722926,0A9.141836740722926,9.141836740722926,0,1,1,-9.141836740722926,0A9.141836740722926,9.141836740722926,0,1,1,9.141836740722926,0" fill="rgb(169, 85, 9)" stroke-width="2" opacity="0.9"/><path transform="translate(10,150)" d="M6.628431942138697,0A6.628431942138697,6.628431942138697,0,1,1,-6.628431942138697,0A6.628431942138697,6.628431942138697,0,1,1,6.628431942138697,0" fill="rgb(243, 172, 86)" stroke-width="2" opacity="0.9"/><path transform="translate(30,150)" d="M6.952993142879393,0A6.952993142879393,6.952993142879393,0,1,1,-6.952993142879393,0A6.952993142879393,6.952993142879393,0,1,1,6.952993142879393,0" fill="rgb(238, 161, 69)" stroke-width="2" opacity="0.9"/><path transform="translate(50,150)" d="M8.461662190919267,0A8.461662190919267,8.461662190919267,0,1,1,-8.461662190919267,0A8.461662190919267,8.461662190919267,0,1,1,8.461662190919267,0" fill="rgb(198, 106, 14)" stroke-width="2" opacity="0.9"/><path transform="translate(70,150)" d="M9.103927532445478,0A9.103927532445478,9.103927532445478,0,1,1,-9.103927532445478,0A9.103927532445478,9.103927532445478,0,1,1,9.103927532445478,0" fill="rgb(171, 87, 9)" stroke-width="2" opacity="0.9"/><path transform="translate(110,150)" d="M9.390105000630733,0A9.390105000630733,9.390105000630733,0,1,1,-9.390105000630733,0A9.390105000630733,9.390105000630733,0,1,1,9.390105000630733,0" fill="rgb(158, 78, 8)" stroke-width="2" opacity="0.9"/><path transform="translate(130,150)" d="M8.779926321536797,0A8.779926321536797,8.779926321536797,0,1,1,-8.779926321536797,0A8.779926321536797,8.779926321536797,0,1,1,8.779926321536797,0" fill="rgb(185, 97, 11)" stroke-width="2" opacity="0.9"/><path transform="translate(190,210)" d="M4.9228345082071545,0A4.9228345082071545,4.9228345082071545,0,1,1,-4.9228345082071545,0A4.9228345082071545,4.9228345082071545,0,1,1,4.9228345082071545,0" fill="rgb(252, 213, 162)" stroke-width="2" opacity="0.9"/><path transform="translate(210,210)" d="M3.6309182052953664,0A3.6309182052953664,3.6309182052953664,0,1,1,-3.6309182052953664,0A3.6309182052953664,3.6309182052953664,0,1,1,3.6309182052953664,0" fill="rgb(219, 232, 238)" stroke-width="2" opacity="0.9"/><path transform="translate(90,210)" d="M1.5203016655383172,0A1.5203016655383172,1.5203016655383172,0,1,1,-1.5203016655383172,0A1.5203016655383172,1.5203016655383172,0,1,1,1.5203016655383172,0" fill="rgb(243, 238, 229)" stroke-width="2" opacity="0.9"/><path transform="translate(70,210)" d="M8.938073127454466,0A8.938073127454466,8.938073127454466,0,1,1,-8.938073127454466,0A8.938073127454466,8.938073127454466,0,1,1,8.938073127454466,0" fill="rgb(178, 92, 10)" stroke-width="2" opacity="0.9"/><path transform="translate(170,210)" d="M9.300445773168228,0A9.300445773168228,9.300445773168228,0,1,1,-9.300445773168228,0A9.300445773168228,9.300445773168228,0,1,1,9.300445773168228,0" fill="rgb(162, 80, 8)" stroke-width="2" opacity="0.9"/><path transform="translate(150,210)" d="M9.012816409677633,0A9.012816409677633,9.012816409677633,0,1,1,-9.012816409677633,0A9.012816409677633,9.012816409677633,0,1,1,9.012816409677633,0" fill="rgb(175, 89, 10)" stroke-width="2" opacity="0.9"/><path transform="translate(130,210)" d="M8.557687170647434,0A8.557687170647434,8.557687170647434,0,1,1,-8.557687170647434,0A8.557687170647434,8.557687170647434,0,1,1,8.557687170647434,0" fill="rgb(194, 103, 13)" stroke-width="2" opacity="0.9"/><path transform="translate(110,210)" d="M9.201472753876539,0A9.201472753876539,9.201472753876539,0,1,1,-9.201472753876539,0A9.201472753876539,9.201472753876539,0,1,1,9.201472753876539,0" fill="rgb(167, 84, 9)" stroke-width="2" opacity="0.9"/><path transform="translate(50,210)" d="M8.862083417624032,0A8.862083417624032,8.862083417624032,0,1,1,-8.862083417624032,0A8.862083417624032,8.862083417624032,0,1,1,8.862083417624032,0" fill="rgb(182, 94, 11)" stroke-width="2" opacity="0.9"/><path transform="translate(30,210)" d="M6.907468591326076,0A6.907468591326076,6.907468591326076,0,1,1,-6.907468591326076,0A6.907468591326076,6.907468591326076,0,1,1,6.907468591326076,0" fill="rgb(239, 163, 72)" stroke-width="2" opacity="0.9"/><path transform="translate(10,210)" d="M6.645120494247876,0A6.645120494247876,6.645120494247876,0,1,1,-6.645120494247876,0A6.645120494247876,6.645120494247876,0,1,1,6.645120494247876,0" fill="rgb(243, 171, 85)" stroke-width="2" opacity="0.9"/><path transform="translate(10,30)" d="M6.252504119636938,0A6.252504119636938,6.252504119636938,0,1,1,-6.252504119636938,0A6.252504119636938,6.252504119636938,0,1,1,6.252504119636938,0" fill="rgb(248, 184, 105)" stroke-width="2" opacity="0.9"/><path transform="translate(30,30)" d="M6.629245778981922,0A6.629245778981922,6.629245778981922,0,1,1,-6.629245778981922,0A6.629245778981922,6.629245778981922,0,1,1,6.629245778981922,0" fill="rgb(243, 172, 86)" stroke-width="2" opacity="0.9"/><path transform="translate(10,10)" d="M8.451456246395729,0A8.451456246395729,8.451456246395729,0,1,1,-8.451456246395729,0A8.451456246395729,8.451456246395729,0,1,1,8.451456246395729,0" fill="rgb(198, 107, 14)" stroke-width="2" opacity="0.9"/><path transform="translate(10,110)" d="M6.318957088346858,0A6.318957088346858,6.318957088346858,0,1,1,-6.318957088346858,0A6.318957088346858,6.318957088346858,0,1,1,6.318957088346858,0" fill="rgb(247, 182, 101)" stroke-width="2" opacity="0.9"/><path transform="translate(70,110)" d="M7.8007292503778585,0A7.8007292503778585,7.8007292503778585,0,1,1,-7.8007292503778585,0A7.8007292503778585,7.8007292503778585,0,1,1,7.8007292503778585,0" fill="rgb(219, 131, 34)" stroke-width="2" opacity="0.9"/><path transform="translate(50,110)" d="M8.499590191897461,0A8.499590191897461,8.499590191897461,0,1,1,-8.499590191897461,0A8.499590191897461,8.499590191897461,0,1,1,8.499590191897461,0" fill="rgb(197, 105, 13)" stroke-width="2" opacity="0.9"/><path transform="translate(30,110)" d="M6.4652245888680655,0A6.4652245888680655,6.4652245888680655,0,1,1,-6.4652245888680655,0A6.4652245888680655,6.4652245888680655,0,1,1,6.4652245888680655,0" fill="rgb(245, 177, 94)" stroke-width="2" opacity="0.9"/><path transform="translate(90,110)" d="M3.0445637044786187,0A3.0445637044786187,3.0445637044786187,0,1,1,-3.0445637044786187,0A3.0445637044786187,3.0445637044786187,0,1,1,3.0445637044786187,0" fill="rgb(226, 234, 237)" stroke-width="2" opacity="0.9"/><path transform="translate(110,110)" d="M8.738134227649454,0A8.738134227649454,8.738134227649454,0,1,1,-8.738134227649454,0A8.738134227649454,8.738134227649454,0,1,1,8.738134227649454,0" fill="rgb(187, 98, 12)" stroke-width="2" opacity="0.9"/><path transform="translate(50,50)" d="M7.256162250596589,0A7.256162250596589,7.256162250596589,0,1,1,-7.256162250596589,0A7.256162250596589,7.256162250596589,0,1,1,7.256162250596589,0" fill="rgb(234, 151, 53)" stroke-width="2" opacity="0.9"/><path transform="translate(30,50)" d="M6.199194887572314,0A6.199194887572314,6.199194887572314,0,1,1,-6.199194887572314,0A6.199194887572314,6.199194887572314,0,1,1,6.199194887572314,0" fill="rgb(249, 185, 107)" stroke-width="2" opacity="0.9"/><path transform="translate(10,50)" d="M6.011420449597524,0A6.011420449597524,6.011420449597524,0,1,1,-6.011420449597524,0A6.011420449597524,6.011420449597524,0,1,1,6.011420449597524,0" fill="rgb(251, 191, 116)" stroke-width="2" opacity="0.9"/><path transform="translate(90,90)" d="M3.1065908419452577,0A3.1065908419452577,3.1065908419452577,0,1,1,-3.1065908419452577,0A3.1065908419452577,3.1065908419452577,0,1,1,3.1065908419452577,0" fill="rgb(225, 234, 237)" stroke-width="2" opacity="0.9"/><path transform="translate(70,90)" d="M9.250325430781308,0A9.250325430781308,9.250325430781308,0,1,1,-9.250325430781308,0A9.250325430781308,9.250325430781308,0,1,1,9.250325430781308,0" fill="rgb(164, 82, 9)" stroke-width="2" opacity="0.9"/><path transform="translate(30,90)" d="M6.833052518643041,0A6.833052518643041,6.833052518643041,0,1,1,-6.833052518643041,0A6.833052518643041,6.833052518643041,0,1,1,6.833052518643041,0" fill="rgb(240, 165, 76)" stroke-width="2" opacity="0.9"/><path transform="translate(10,90)" d="M6.556868543684135,0A6.556868543684135,6.556868543684135,0,1,1,-6.556868543684135,0A6.556868543684135,6.556868543684135,0,1,1,6.556868543684135,0" fill="rgb(244, 174, 90)" stroke-width="2" opacity="0.9"/><path transform="translate(50,90)" d="M8.099192953531636,0A8.099192953531636,8.099192953531636,0,1,1,-8.099192953531636,0A8.099192953531636,8.099192953531636,0,1,1,8.099192953531636,0" fill="rgb(210, 120, 25)" stroke-width="2" opacity="0.9"/><path transform="translate(130,190)" d="M4.486194462088029,0A4.486194462088029,4.486194462088029,0,1,1,-4.486194462088029,0A4.486194462088029,4.486194462088029,0,1,1,4.486194462088029,0" fill="rgb(204, 226, 237)" stroke-width="2" opacity="0.9"/><path transform="translate(90,190)" d="M7.943466071865076,0A7.943466071865076,7.943466071865076,0,1,1,-7.943466071865076,0A7.943466071865076,7.943466071865076,0,1,1,7.943466071865076,0" fill="rgb(215, 126, 30)" stroke-width="2" opacity="0.9"/><path transform="translate(70,190)" d="M4.572749620564525,0A4.572749620564525,4.572749620564525,0,1,1,-4.572749620564525,0A4.572749620564525,4.572749620564525,0,1,1,4.572749620564525,0" fill="rgb(202, 225, 237)" stroke-width="2" opacity="0.9"/><path transform="translate(110,190)" d="M4.869652937255525,0A4.869652937255525,4.869652937255525,0,1,1,-4.869652937255525,0A4.869652937255525,4.869652937255525,0,1,1,4.869652937255525,0" fill="rgb(193, 221, 235)" stroke-width="2" opacity="0.9"/><path transform="translate(50,190)" d="M1.5759514322013424,0A1.5759514322013424,1.5759514322013424,0,1,1,-1.5759514322013424,0A1.5759514322013424,1.5759514322013424,0,1,1,1.5759514322013424,0" fill="rgb(243, 238, 228)" stroke-width="2" opacity="0.9"/><path transform="translate(30,190)" d="M4.0426750967678755,0A4.0426750967678755,4.0426750967678755,0,1,1,-4.0426750967678755,0A4.0426750967678755,4.0426750967678755,0,1,1,4.0426750967678755,0" fill="rgb(213, 230, 239)" stroke-width="2" opacity="0.9"/><path transform="translate(190,190)" d="M5.923101563714608,0A5.923101563714608,5.923101563714608,0,1,1,-5.923101563714608,0A5.923101563714608,5.923101563714608,0,1,1,5.923101563714608,0" fill="rgb(251, 193, 120)" stroke-width="2" opacity="0.9"/><path transform="translate(170,190)" d="M3.3250035464599437,0A3.3250035464599437,3.3250035464599437,0,1,1,-3.3250035464599437,0A3.3250035464599437,3.3250035464599437,0,1,1,3.3250035464599437,0" fill="rgb(222, 233, 237)" stroke-width="2" opacity="0.9"/><path transform="translate(150,190)" d="M2.8105350264184255,0A2.8105350264184255,2.8105350264184255,0,1,1,-2.8105350264184255,0A2.8105350264184255,2.8105350264184255,0,1,1,2.8105350264184255,0" fill="rgb(228, 235, 237)" stroke-width="2" opacity="0.9"/><path transform="translate(10,190)" d="M4.089595788040504,0A4.089595788040504,4.089595788040504,0,1,1,-4.089595788040504,0A4.089595788040504,4.089595788040504,0,1,1,4.089595788040504,0" fill="rgb(212, 230, 239)" stroke-width="2" opacity="0.9"/><path transform="translate(70,130)" d="M8.011572893905686,0A8.011572893905686,8.011572893905686,0,1,1,-8.011572893905686,0A8.011572893905686,8.011572893905686,0,1,1,8.011572893905686,0" fill="rgb(213, 124, 28)" stroke-width="2" opacity="0.9"/><path transform="translate(50,130)" d="M8.988869703028117,0A8.988869703028117,8.988869703028117,0,1,1,-8.988869703028117,0A8.988869703028117,8.988869703028117,0,1,1,8.988869703028117,0" fill="rgb(176, 90, 10)" stroke-width="2" opacity="0.9"/><path transform="translate(90,130)" d="M3.042188272827316,0A3.042188272827316,3.042188272827316,0,1,1,-3.042188272827316,0A3.042188272827316,3.042188272827316,0,1,1,3.042188272827316,0" fill="rgb(247, 232, 210)" stroke-width="2" opacity="0.9"/><path transform="translate(130,130)" d="M9.180760323708395,0A9.180760323708395,9.180760323708395,0,1,1,-9.180760323708395,0A9.180760323708395,9.180760323708395,0,1,1,9.180760323708395,0" fill="rgb(168, 84, 9)" stroke-width="2" opacity="0.9"/><path transform="translate(110,130)" d="M8.890773917769744,0A8.890773917769744,8.890773917769744,0,1,1,-8.890773917769744,0A8.890773917769744,8.890773917769744,0,1,1,8.890773917769744,0" fill="rgb(180, 93, 11)" stroke-width="2" opacity="0.9"/><path transform="translate(10,130)" d="M6.543596790874208,0A6.543596790874208,6.543596790874208,0,1,1,-6.543596790874208,0A6.543596790874208,6.543596790874208,0,1,1,6.543596790874208,0" fill="rgb(244, 175, 90)" stroke-width="2" opacity="0.9"/><path transform="translate(30,130)" d="M6.9431655410932605,0A6.9431655410932605,6.9431655410932605,0,1,1,-6.9431655410932605,0A6.9431655410932605,6.9431655410932605,0,1,1,6.9431655410932605,0" fill="rgb(238, 161, 70)" stroke-width="2" opacity="0.9"/><path transform="translate(30,170)" d="M3.019707104150541,0A3.019707104150541,3.019707104150541,0,1,1,-3.019707104150541,0A3.019707104150541,3.019707104150541,0,1,1,3.019707104150541,0" fill="rgb(247, 232, 210)" stroke-width="2" opacity="0.9"/><path transform="translate(70,170)" d="M2.055584708438363,0A2.055584708438363,2.055584708438363,0,1,1,-2.055584708438363,0A2.055584708438363,2.055584708438363,0,1,1,2.055584708438363,0" fill="rgb(244, 236, 224)" stroke-width="2" opacity="0.9"/><path transform="translate(90,170)" d="M3.226973000534327,0A3.226973000534327,3.226973000534327,0,1,1,-3.226973000534327,0A3.226973000534327,3.226973000534327,0,1,1,3.226973000534327,0" fill="rgb(224, 234, 237)" stroke-width="2" opacity="0.9"/><path transform="translate(110,170)" d="M3.792178965629021,0A3.792178965629021,3.792178965629021,0,1,1,-3.792178965629021,0A3.792178965629021,3.792178965629021,0,1,1,3.792178965629021,0" fill="rgb(250, 227, 196)" stroke-width="2" opacity="0.9"/><path transform="translate(130,170)" d="M4.818059042874143,0A4.818059042874143,4.818059042874143,0,1,1,-4.818059042874143,0A4.818059042874143,4.818059042874143,0,1,1,4.818059042874143,0" fill="rgb(252, 215, 166)" stroke-width="2" opacity="0.9"/><path transform="translate(150,170)" d="M4.95228759726087,0A4.95228759726087,4.95228759726087,0,1,1,-4.95228759726087,0A4.95228759726087,4.95228759726087,0,1,1,4.95228759726087,0" fill="rgb(252, 212, 161)" stroke-width="2" opacity="0.9"/><path transform="translate(170,170)" d="M3.8709222083568173,0A3.8709222083568173,3.8709222083568173,0,1,1,-3.8709222083568173,0A3.8709222083568173,3.8709222083568173,0,1,1,3.8709222083568173,0" fill="rgb(250, 227, 194)" stroke-width="2" opacity="0.9"/><path transform="translate(10,170)" d="M3.0189639289565773,0A3.0189639289565773,3.0189639289565773,0,1,1,-3.0189639289565773,0A3.0189639289565773,3.0189639289565773,0,1,1,3.0189639289565773,0" fill="rgb(247, 232, 210)" stroke-width="2" opacity="0.9"/><path transform="translate(50,170)" d="M5.942811537560365,0A5.942811537560365,5.942811537560365,0,1,1,-5.942811537560365,0A5.942811537560365,5.942811537560365,0,1,1,5.942811537560365,0" fill="rgb(251, 192, 119)" stroke-width="2" opacity="0.9"/></g><g class="mark-path role-mark concat_0_voronoi" role="graphics-symbol" aria-roledescription="path mark container"><path transform="translate(0,0)" d="M0,60L20,60L20,80L0,80Z" stroke-width="0.35"/><path transform="translate(0,0)" d="M40,80L20,80L20,60L40,60Z" stroke-width="0.35"/><path transform="translate(0,0)" d="M60,80L40,80L40,60L60,60Z" stroke-width="0.35"/><path transform="translate(0,0)" d="M160,0L80,80L60,80L60,60L120,0Z" stroke-width="0.35"/><path transform="translate(0,0)" d="M80,140L100,140L100,160L80,160Z" stroke-width="0.35"/><path transform="translate(0,0)" d="M220,100L160,160L140,160L140,140L220,60Z" stroke-width="0.35"/><path transform="translate(0,0)" d="M0,140L20,140L20,160L0,160Z" stroke-width="0.35"/><path transform="translate(0,0)" d="M40,160L20,160L20,140L40,140Z" stroke-width="0.35"/><path transform="translate(0,0)" d="M60,140L60,160L40,160L40,140Z" stroke-width="0.35"/><path transform="translate(0,0)" d="M80,140L80,160L60,160L60,140Z" stroke-width="0.35"/><path transform="translate(0,0)" d="M120,140L120,160L100,160L100,140Z" stroke-width="0.35"/><path transform="translate(0,0)" d="M120,140L140,140L140,160L120,160Z" stroke-width="0.35"/><path transform="translate(0,0)" d="M180,220L180,200L200,200L200,220Z" stroke-width="0.35"/><path transform="translate(0,0)" d="M220,220L200,220L200,200L220,180Z" stroke-width="0.35"/><path transform="translate(0,0)" d="M80,220L80,200L100,200L100,220Z" stroke-width="0.35"/><path transform="translate(0,0)" d="M60,220L60,200L80,200L80,220Z" stroke-width="0.35"/><path transform="translate(0,0)" d="M160,220L160,200L180,200L180,220Z" stroke-width="0.35"/><path transform="translate(0,0)" d="M140,220L140,200L160,200L160,220Z" stroke-width="0.35"/><path transform="translate(0,0)" d="M120,220L120,200L140,200L140,220Z" stroke-width="0.35"/><path transform="translate(0,0)" d="M100,220L100,200L120,200L120,220Z" stroke-width="0.35"/><path transform="translate(0,0)" d="M40,220L40,200L60,200L60,220Z" stroke-width="0.35"/><path transform="translate(0,0)" d="M20,220L20,200L40,200L40,220Z" stroke-width="0.35"/><path transform="translate(0,0)" d="M0,220L0,200L20,200L20,220Z" stroke-width="0.35"/><path transform="translate(0,0)" d="M0,20L20,20L20,40L0,40Z" stroke-width="0.35"/><path transform="translate(0,0)" d="M80,0L40,40L20,40L20,20L40,0Z" stroke-width="0.35"/><path transform="translate(0,0)" d="M0,0L40,0L20,20L0,20Z" stroke-width="0.35"/><path transform="translate(0,0)" d="M0,100L20,100L20,120L0,120Z" stroke-width="0.35"/><path transform="translate(0,0)" d="M80,100L80,120L60,120L60,100Z" stroke-width="0.35"/><path transform="translate(0,0)" d="M60,100L60,120L40,120L40,100Z" stroke-width="0.35"/><path transform="translate(0,0)" d="M40,100L40,120L20,120L20,100Z" stroke-width="0.35"/><path transform="translate(0,0)" d="M100,100L100,120L80,120L80,100Z" stroke-width="0.35"/><path transform="translate(0,0)" d="M220,0L220,20L120,120L100,120L100,100L200,0Z" stroke-width="0.35"/><path transform="translate(0,0)" d="M120,0L60,60L40,60L40,40L80,0Z" stroke-width="0.35"/><path transform="translate(0,0)" d="M40,60L20,60L20,40L40,40Z" stroke-width="0.35"/><path transform="translate(0,0)" d="M0,40L20,40L20,60L0,60Z" stroke-width="0.35"/><path transform="translate(0,0)" d="M200,0L100,100L80,100L80,80L160,0Z" stroke-width="0.35"/><path transform="translate(0,0)" d="M80,100L60,100L60,80L80,80Z" stroke-width="0.35"/><path transform="translate(0,0)" d="M40,100L20,100L20,80L40,80Z" stroke-width="0.35"/><path transform="translate(0,0)" d="M0,80L20,80L20,100L0,100Z" stroke-width="0.35"/><path transform="translate(0,0)" d="M60,100L40,100L40,80L60,80Z" stroke-width="0.35"/><path transform="translate(0,0)" d="M140,180L140,200L120,200L120,180Z" stroke-width="0.35"/><path transform="translate(0,0)" d="M100,180L100,200L80,200L80,180Z" stroke-width="0.35"/><path transform="translate(0,0)" d="M80,180L80,200L60,200L60,180Z" stroke-width="0.35"/><path transform="translate(0,0)" d="M120,180L120,200L100,200L100,180Z" stroke-width="0.35"/><path transform="translate(0,0)" d="M60,180L60,200L40,200L40,180Z" stroke-width="0.35"/><path transform="translate(0,0)" d="M40,180L40,200L20,200L20,180Z" stroke-width="0.35"/><path transform="translate(0,0)" d="M220,180L200,200L180,200L180,180L220,140Z" stroke-width="0.35"/><path transform="translate(0,0)" d="M160,200L160,180L180,180L180,200Z" stroke-width="0.35"/><path transform="translate(0,0)" d="M160,180L160,200L140,200L140,180Z" stroke-width="0.35"/><path transform="translate(0,0)" d="M0,180L20,180L20,200L0,200Z" stroke-width="0.35"/><path transform="translate(0,0)" d="M80,120L80,140L60,140L60,120Z" stroke-width="0.35"/><path transform="translate(0,0)" d="M60,140L40,140L40,120L60,120Z" stroke-width="0.35"/><path transform="translate(0,0)" d="M100,120L100,140L80,140L80,120Z" stroke-width="0.35"/><path transform="translate(0,0)" d="M220,60L140,140L120,140L120,120L220,20Z" stroke-width="0.35"/><path transform="translate(0,0)" d="M100,120L120,120L120,140L100,140Z" stroke-width="0.35"/><path transform="translate(0,0)" d="M0,120L20,120L20,140L0,140Z" stroke-width="0.35"/><path transform="translate(0,0)" d="M40,140L20,140L20,120L40,120Z" stroke-width="0.35"/><path transform="translate(0,0)" d="M40,160L40,180L20,180L20,160Z" stroke-width="0.35"/><path transform="translate(0,0)" d="M80,160L80,180L60,180L60,160Z" stroke-width="0.35"/><path transform="translate(0,0)" d="M80,160L100,160L100,180L80,180Z" stroke-width="0.35"/><path transform="translate(0,0)" d="M120,160L120,180L100,180L100,160Z" stroke-width="0.35"/><path transform="translate(0,0)" d="M140,160L140,180L120,180L120,160Z" stroke-width="0.35"/><path transform="translate(0,0)" d="M140,160L160,160L160,180L140,180Z" stroke-width="0.35"/><path transform="translate(0,0)" d="M220,140L180,180L160,180L160,160L220,100Z" stroke-width="0.35"/><path transform="translate(0,0)" d="M0,160L20,160L20,180L0,180Z" stroke-width="0.35"/><path transform="translate(0,0)" d="M40,160L60,160L60,180L40,180Z" stroke-width="0.35"/></g><g class="mark-group role-title"><g transform="translate(110,-17.7)"><path class="background" aria-hidden="true" d="M0,0h0v0h0Z" pointer-events="none"/><g><g class="mark-text role-title-text" role="graphics-symbol" aria-roledescription="title" aria-label="Title text 'Pearson correlations'" pointer-events="none"><text text-anchor="middle" transform="translate(0,10)" font-family="sans-serif" font-size="13px" font-weight="bold" fill="#000" opacity="1">Pearson correlations</text></g></g><path class="foreground" aria-hidden="true" d="" pointer-events="none" display="none"/></g></g></g><path class="foreground" aria-hidden="true" d="" display="none"/></g></g><g class="mark-group role-scope concat_1_group" role="graphics-object" aria-roledescription="group mark container"><g transform="translate(247,0)"><path class="background" aria-hidden="true" d="M0,0h220v220h-220Z" stroke="#ddd" stroke-width="0"/><g><g class="mark-group role-axis" role="graphics-symbol" aria-roledescription="axis" aria-label="X-axis for a discrete scale with 11 values: Internações Ano Seguinte - Dengue, Internações - Dengue, Percentual Desmatado, Hidrografia, Área de Não Floresta, ending with Extensão da rede de esgoto"><g transform="translate(0.5,220.5)"><path class="background" aria-hidden="true" d="M0,0h0v0h0Z" pointer-events="none"/><g><g class="mark-rule role-axis-tick" pointer-events="none"><line transform="translate(10,0)" x2="0" y2="5" stroke="#888" stroke-width="1" opacity="1"/><line transform="translate(30,0)" x2="0" y2="5" stroke="#888" stroke-width="1" opacity="1"/><line transform="translate(50,0)" x2="0" y2="5" stroke="#888" stroke-width="1" opacity="1"/><line transform="translate(70,0)" x2="0" y2="5" stroke="#888" stroke-width="1" opacity="1"/><line transform="translate(90,0)" x2="0" y2="5" stroke="#888" stroke-width="1" opacity="1"/><line transform="translate(110,0)" x2="0" y2="5" stroke="#888" stroke-width="1" opacity="1"/><line transform="translate(130,0)" x2="0" y2="5" stroke="#888" stroke-width="1" opacity="1"/><line transform="translate(150,0)" x2="0" y2="5" stroke="#888" stroke-width="1" opacity="1"/><line transform="translate(170,0)" x2="0" y2="5" stroke="#888" stroke-width="1" opacity="1"/><line transform="translate(190,0)" x2="0" y2="5" stroke="#888" stroke-width="1" opacity="1"/><line transform="translate(210,0)" x2="0" y2="5" stroke="#888" stroke-width="1" opacity="1"/></g><g class="mark-text role-axis-label" pointer-events="none"><text text-anchor="end" transform="translate(10,7) rotate(270) translate(0,3)" font-family="sans-serif" font-size="10px" fill="#000" opacity="1">Internações Ano Seguinte - Dengue</text><text text-anchor="end" transform="translate(30,7) rotate(270) translate(0,3)" font-family="sans-serif" font-size="10px" fill="#000" opacity="1">Internações - Dengue</text><text text-anchor="end" transform="translate(50,7) rotate(270) translate(0,3)" font-family="sans-serif" font-size="10px" fill="#000" opacity="1">Percentual Desmatado</text><text text-anchor="end" transform="translate(70,7) rotate(270) translate(0,3)" font-family="sans-serif" font-size="10px" fill="#000" opacity="1">Hidrografia</text><text text-anchor="end" transform="translate(90,7) rotate(270) translate(0,3)" font-family="sans-serif" font-size="10px" fill="#000" opacity="1">Área de Não Floresta</text><text text-anchor="end" transform="translate(110,7) rotate(270) translate(0,3)" font-family="sans-serif" font-size="10px" fill="#000" opacity="1">Floresta</text><text text-anchor="end" transform="translate(130,7) rotate(270) translate(0,3)" font-family="sans-serif" font-size="10px" fill="#000" opacity="1">Incremento</text><text text-anchor="end" transform="translate(150,7) rotate(270) translate(0,3)" font-family="sans-serif" font-size="10px" fill="#000" opacity="1">Desmatado</text><text text-anchor="end" transform="translate(170,7) rotate(270) translate(0,3)" font-family="sans-serif" font-size="10px" fill="#000" opacity="1">Área (Km2)</text><text text-anchor="end" transform="translate(190,7) rotate(270) translate(0,3)" font-family="sans-serif" font-size="10px" fill="#000" opacity="1">Densidade demográfica</text><text text-anchor="end" transform="translate(210,7) rotate(270) translate(0,3)" font-family="sans-serif" font-size="10px" fill="#000" opacity="1">Extensão da rede de esgoto</text></g><g class="mark-rule role-axis-domain" pointer-events="none"><line transform="translate(0,0)" x2="220" y2="0" stroke="#888" stroke-width="1" opacity="1"/></g></g><path class="foreground" aria-hidden="true" d="" pointer-events="none" display="none"/></g></g><g class="mark-group role-axis" role="graphics-symbol" aria-roledescription="axis" aria-label="Y-axis for a discrete scale with 11 values: Internações - Dengue, Percentual Desmatado, Hidrografia, Área de Não Floresta, Floresta, ending with População sem acesso a coleta de esgoto"><g transform="translate(0.5,0.5)"><path class="background" aria-hidden="true" d="M0,0h0v0h0Z" pointer-events="none"/><g><g class="mark-rule role-axis-tick" pointer-events="none"><line transform="translate(0,10)" x2="-5" y2="0" stroke="#888" stroke-width="1" opacity="1"/><line transform="translate(0,30)" x2="-5" y2="0" stroke="#888" stroke-width="1" opacity="1"/><line transform="translate(0,50)" x2="-5" y2="0" stroke="#888" stroke-width="1" opacity="1"/><line transform="translate(0,70)" x2="-5" y2="0" stroke="#888" stroke-width="1" opacity="1"/><line transform="translate(0,90)" x2="-5" y2="0" stroke="#888" stroke-width="1" opacity="1"/><line transform="translate(0,110)" x2="-5" y2="0" stroke="#888" stroke-width="1" opacity="1"/><line transform="translate(0,130)" x2="-5" y2="0" stroke="#888" stroke-width="1" opacity="1"/><line transform="translate(0,150)" x2="-5" y2="0" stroke="#888" stroke-width="1" opacity="1"/><line transform="translate(0,170)" x2="-5" y2="0" stroke="#888" stroke-width="1" opacity="1"/><line transform="translate(0,190)" x2="-5" y2="0" stroke="#888" stroke-width="1" opacity="1"/><line transform="translate(0,210)" x2="-5" y2="0" stroke="#888" stroke-width="1" opacity="1"/></g><g class="mark-rule role-axis-domain" pointer-events="none"><line transform="translate(0,0)" x2="0" y2="220" stroke="#888" stroke-width="1" opacity="1"/></g></g><path class="foreground" aria-hidden="true" d="" pointer-events="none" display="none"/></g></g><g class="mark-symbol role-mark concat_1_marks" role="graphics-symbol" aria-roledescription="symbol mark container"><path transform="translate(10,70)" d="M4.437992466803192,0A4.437992466803192,4.437992466803192,0,1,1,-4.437992466803192,0A4.437992466803192,4.437992466803192,0,1,1,4.437992466803192,0" fill="rgb(252, 221, 180)" stroke-width="2" opacity="0.9"/><path transform="translate(30,70)" d="M4.829433898535817,0A4.829433898535817,4.829433898535817,0,1,1,-4.829433898535817,0A4.829433898535817,4.829433898535817,0,1,1,4.829433898535817,0" fill="rgb(252, 214, 166)" stroke-width="2" opacity="0.9"/><path transform="translate(50,70)" d="M7.785998902465521,0A7.785998902465521,7.785998902465521,0,1,1,-7.785998902465521,0A7.785998902465521,7.785998902465521,0,1,1,7.785998902465521,0" fill="rgb(219, 132, 35)" stroke-width="2" opacity="0.9"/><path transform="translate(70,70)" d="M7.6169453945040955,0A7.6169453945040955,7.6169453945040955,0,1,1,-7.6169453945040955,0A7.6169453945040955,7.6169453945040955,0,1,1,7.6169453945040955,0" fill="rgb(225, 138, 40)" stroke-width="2" opacity="0.9"/><path transform="translate(90,150)" d="M6.219209871725782,0A6.219209871725782,6.219209871725782,0,1,1,-6.219209871725782,0A6.219209871725782,6.219209871725782,0,1,1,6.219209871725782,0" fill="rgb(248, 185, 106)" stroke-width="2" opacity="0.9"/><path transform="translate(150,150)" d="M9.041221318446675,0A9.041221318446675,9.041221318446675,0,1,1,-9.041221318446675,0A9.041221318446675,9.041221318446675,0,1,1,9.041221318446675,0" fill="rgb(174, 89, 10)" stroke-width="2" opacity="0.9"/><path transform="translate(10,150)" d="M5.5888749657226136,0A5.5888749657226136,5.5888749657226136,0,1,1,-5.5888749657226136,0A5.5888749657226136,5.5888749657226136,0,1,1,5.5888749657226136,0" fill="rgb(251, 200, 135)" stroke-width="2" opacity="0.9"/><path transform="translate(30,150)" d="M6.24286974065027,0A6.24286974065027,6.24286974065027,0,1,1,-6.24286974065027,0A6.24286974065027,6.24286974065027,0,1,1,6.24286974065027,0" fill="rgb(248, 184, 105)" stroke-width="2" opacity="0.9"/><path transform="translate(50,150)" d="M8.185537172010928,0A8.185537172010928,8.185537172010928,0,1,1,-8.185537172010928,0A8.185537172010928,8.185537172010928,0,1,1,8.185537172010928,0" fill="rgb(207, 117, 23)" stroke-width="2" opacity="0.9"/><path transform="translate(70,150)" d="M9.154429060764599,0A9.154429060764599,9.154429060764599,0,1,1,-9.154429060764599,0A9.154429060764599,9.154429060764599,0,1,1,9.154429060764599,0" fill="rgb(169, 85, 9)" stroke-width="2" opacity="0.9"/><path transform="translate(110,150)" d="M8.56646126936619,0A8.56646126936619,8.56646126936619,0,1,1,-8.56646126936619,0A8.56646126936619,8.56646126936619,0,1,1,8.56646126936619,0" fill="rgb(194, 103, 13)" stroke-width="2" opacity="0.9"/><path transform="translate(130,150)" d="M7.896108672341171,0A7.896108672341171,7.896108672341171,0,1,1,-7.896108672341171,0A7.896108672341171,7.896108672341171,0,1,1,7.896108672341171,0" fill="rgb(216, 128, 32)" stroke-width="2" opacity="0.9"/><path transform="translate(190,210)" d="M5.1239329624407395,0A5.1239329624407395,5.1239329624407395,0,1,1,-5.1239329624407395,0A5.1239329624407395,5.1239329624407395,0,1,1,5.1239329624407395,0" fill="rgb(252, 209, 154)" stroke-width="2" opacity="0.9"/><path transform="translate(210,210)" d="M1.7625917746746071,0A1.7625917746746071,1.7625917746746071,0,1,1,-1.7625917746746071,0A1.7625917746746071,1.7625917746746071,0,1,1,1.7625917746746071,0" fill="rgb(244, 237, 227)" stroke-width="2" opacity="0.9"/><path transform="translate(90,210)" d="M7.193718910038026,0A7.193718910038026,7.193718910038026,0,1,1,-7.193718910038026,0A7.193718910038026,7.193718910038026,0,1,1,7.193718910038026,0" fill="rgb(235, 153, 56)" stroke-width="2" opacity="0.9"/><path transform="translate(70,210)" d="M9.272725933048683,0A9.272725933048683,9.272725933048683,0,1,1,-9.272725933048683,0A9.272725933048683,9.272725933048683,0,1,1,9.272725933048683,0" fill="rgb(163, 81, 8)" stroke-width="2" opacity="0.9"/><path transform="translate(170,210)" d="M8.717639740283888,0A8.717639740283888,8.717639740283888,0,1,1,-8.717639740283888,0A8.717639740283888,8.717639740283888,0,1,1,8.717639740283888,0" fill="rgb(188, 98, 12)" stroke-width="2" opacity="0.9"/><path transform="translate(150,210)" d="M7.877149894337324,0A7.877149894337324,7.877149894337324,0,1,1,-7.877149894337324,0A7.877149894337324,7.877149894337324,0,1,1,7.877149894337324,0" fill="rgb(217, 129, 32)" stroke-width="2" opacity="0.9"/><path transform="translate(130,210)" d="M7.029012396360215,0A7.029012396360215,7.029012396360215,0,1,1,-7.029012396360215,0A7.029012396360215,7.029012396360215,0,1,1,7.029012396360215,0" fill="rgb(237, 159, 65)" stroke-width="2" opacity="0.9"/><path transform="translate(110,210)" d="M7.03665595087273,0A7.03665595087273,7.03665595087273,0,1,1,-7.03665595087273,0A7.03665595087273,7.03665595087273,0,1,1,7.03665595087273,0" fill="rgb(237, 158, 65)" stroke-width="2" opacity="0.9"/><path transform="translate(50,210)" d="M8.647375624144702,0A8.647375624144702,8.647375624144702,0,1,1,-8.647375624144702,0A8.647375624144702,8.647375624144702,0,1,1,8.647375624144702,0" fill="rgb(191, 101, 12)" stroke-width="2" opacity="0.9"/><path transform="translate(30,210)" d="M6.126357112385644,0A6.126357112385644,6.126357112385644,0,1,1,-6.126357112385644,0A6.126357112385644,6.126357112385644,0,1,1,6.126357112385644,0" fill="rgb(249, 188, 111)" stroke-width="2" opacity="0.9"/><path transform="translate(10,210)" d="M5.787221672036828,0A5.787221672036828,5.787221672036828,0,1,1,-5.787221672036828,0A5.787221672036828,5.787221672036828,0,1,1,5.787221672036828,0" fill="rgb(251, 196, 126)" stroke-width="2" opacity="0.9"/><path transform="translate(10,30)" d="M4.697740707036953,0A4.697740707036953,4.697740707036953,0,1,1,-4.697740707036953,0A4.697740707036953,4.697740707036953,0,1,1,4.697740707036953,0" fill="rgb(252, 217, 170)" stroke-width="2" opacity="0.9"/><path transform="translate(30,30)" d="M5.483099780425279,0A5.483099780425279,5.483099780425279,0,1,1,-5.483099780425279,0A5.483099780425279,5.483099780425279,0,1,1,5.483099780425279,0" fill="rgb(251, 202, 139)" stroke-width="2" opacity="0.9"/><path transform="translate(10,10)" d="M7.74965357710574,0A7.74965357710574,7.74965357710574,0,1,1,-7.74965357710574,0A7.74965357710574,7.74965357710574,0,1,1,7.74965357710574,0" fill="rgb(221, 133, 36)" stroke-width="2" opacity="0.9"/><path transform="translate(10,110)" d="M4.757873146683419,0A4.757873146683419,4.757873146683419,0,1,1,-4.757873146683419,0A4.757873146683419,4.757873146683419,0,1,1,4.757873146683419,0" fill="rgb(252, 216, 168)" stroke-width="2" opacity="0.9"/><path transform="translate(70,110)" d="M6.8557064024201875,0A6.8557064024201875,6.8557064024201875,0,1,1,-6.8557064024201875,0A6.8557064024201875,6.8557064024201875,0,1,1,6.8557064024201875,0" fill="rgb(240, 164, 74)" stroke-width="2" opacity="0.9"/><path transform="translate(50,110)" d="M6.753885544168212,0A6.753885544168212,6.753885544168212,0,1,1,-6.753885544168212,0A6.753885544168212,6.753885544168212,0,1,1,6.753885544168212,0" fill="rgb(241, 168, 80)" stroke-width="2" opacity="0.9"/><path transform="translate(30,110)" d="M5.788222106247338,0A5.788222106247338,5.788222106247338,0,1,1,-5.788222106247338,0A5.788222106247338,5.788222106247338,0,1,1,5.788222106247338,0" fill="rgb(251, 196, 126)" stroke-width="2" opacity="0.9"/><path transform="translate(90,110)" d="M3.298587634581454,0A3.298587634581454,3.298587634581454,0,1,1,-3.298587634581454,0A3.298587634581454,3.298587634581454,0,1,1,3.298587634581454,0" fill="rgb(223, 233, 237)" stroke-width="2" opacity="0.9"/><path transform="translate(110,110)" d="M8.797336409150214,0A8.797336409150214,8.797336409150214,0,1,1,-8.797336409150214,0A8.797336409150214,8.797336409150214,0,1,1,8.797336409150214,0" fill="rgb(184, 96, 11)" stroke-width="2" opacity="0.9"/><path transform="translate(50,50)" d="M8.56646126936619,0A8.56646126936619,8.56646126936619,0,1,1,-8.56646126936619,0A8.56646126936619,8.56646126936619,0,1,1,8.56646126936619,0" fill="rgb(194, 103, 13)" stroke-width="2" opacity="0.9"/><path transform="translate(30,50)" d="M6.128098948636076,0A6.128098948636076,6.128098948636076,0,1,1,-6.128098948636076,0A6.128098948636076,6.128098948636076,0,1,1,6.128098948636076,0" fill="rgb(249, 187, 110)" stroke-width="2" opacity="0.9"/><path transform="translate(10,50)" d="M5.544432776747353,0A5.544432776747353,5.544432776747353,0,1,1,-5.544432776747353,0A5.544432776747353,5.544432776747353,0,1,1,5.544432776747353,0" fill="rgb(251, 201, 137)" stroke-width="2" opacity="0.9"/><path transform="translate(90,90)" d="M3.0938422435165505,0A3.0938422435165505,3.0938422435165505,0,1,1,-3.0938422435165505,0A3.0938422435165505,3.0938422435165505,0,1,1,3.0938422435165505,0" fill="rgb(225, 234, 237)" stroke-width="2" opacity="0.9"/><path transform="translate(70,90)" d="M7.3648176504252945,0A7.3648176504252945,7.3648176504252945,0,1,1,-7.3648176504252945,0A7.3648176504252945,7.3648176504252945,0,1,1,7.3648176504252945,0" fill="rgb(232, 147, 47)" stroke-width="2" opacity="0.9"/><path transform="translate(30,90)" d="M5.773498145829356,0A5.773498145829356,5.773498145829356,0,1,1,-5.773498145829356,0A5.773498145829356,5.773498145829356,0,1,1,5.773498145829356,0" fill="rgb(251, 196, 127)" stroke-width="2" opacity="0.9"/><path transform="translate(10,90)" d="M5.084560205604136,0A5.084560205604136,5.084560205604136,0,1,1,-5.084560205604136,0A5.084560205604136,5.084560205604136,0,1,1,5.084560205604136,0" fill="rgb(252, 210, 156)" stroke-width="2" opacity="0.9"/><path transform="translate(50,90)" d="M6.115139052735899,0A6.115139052735899,6.115139052735899,0,1,1,-6.115139052735899,0A6.115139052735899,6.115139052735899,0,1,1,6.115139052735899,0" fill="rgb(250, 188, 111)" stroke-width="2" opacity="0.9"/><path transform="translate(130,190)" d="M7.712003191214795,0A7.712003191214795,7.712003191214795,0,1,1,-7.712003191214795,0A7.712003191214795,7.712003191214795,0,1,1,7.712003191214795,0" fill="rgb(79, 150, 196)" stroke-width="2" opacity="0.9"/><path transform="translate(90,190)" d="M8.01503676684022,0A8.01503676684022,8.01503676684022,0,1,1,-8.01503676684022,0A8.01503676684022,8.01503676684022,0,1,1,8.01503676684022,0" fill="rgb(212, 124, 28)" stroke-width="2" opacity="0.9"/><path transform="translate(70,190)" d="M2.89780665155836,0A2.89780665155836,2.89780665155836,0,1,1,-2.89780665155836,0A2.89780665155836,2.89780665155836,0,1,1,2.89780665155836,0" fill="rgb(247, 233, 212)" stroke-width="2" opacity="0.9"/><path transform="translate(110,190)" d="M7.417310223577605,0A7.417310223577605,7.417310223577605,0,1,1,-7.417310223577605,0A7.417310223577605,7.417310223577605,0,1,1,7.417310223577605,0" fill="rgb(91, 160, 202)" stroke-width="2" opacity="0.9"/><path transform="translate(50,190)" d="M3.523242820670469,0A3.523242820670469,3.523242820670469,0,1,1,-3.523242820670469,0A3.523242820670469,3.523242820670469,0,1,1,3.523242820670469,0" fill="rgb(249, 229, 201)" stroke-width="2" opacity="0.9"/><path transform="translate(30,190)" d="M4.5292214550090995,0A4.5292214550090995,4.5292214550090995,0,1,1,-4.5292214550090995,0A4.5292214550090995,4.5292214550090995,0,1,1,4.5292214550090995,0" fill="rgb(203, 225, 237)" stroke-width="2" opacity="0.9"/><path transform="translate(190,190)" d="M8.152862246007428,0A8.152862246007428,8.152862246007428,0,1,1,-8.152862246007428,0A8.152862246007428,8.152862246007428,0,1,1,8.152862246007428,0" fill="rgb(208, 118, 24)" stroke-width="2" opacity="0.9"/><path transform="translate(170,190)" d="M3.9351600447983768,0A3.9351600447983768,3.9351600447983768,0,1,1,-3.9351600447983768,0A3.9351600447983768,3.9351600447983768,0,1,1,3.9351600447983768,0" fill="rgb(215, 231, 238)" stroke-width="2" opacity="0.9"/><path transform="translate(150,190)" d="M1.8501149269237018,0A1.8501149269237018,1.8501149269237018,0,1,1,-1.8501149269237018,0A1.8501149269237018,1.8501149269237018,0,1,1,1.8501149269237018,0" fill="rgb(236, 238, 236)" stroke-width="2" opacity="0.9"/><path transform="translate(10,190)" d="M4.427251793617809,0A4.427251793617809,4.427251793617809,0,1,1,-4.427251793617809,0A4.427251793617809,4.427251793617809,0,1,1,4.427251793617809,0" fill="rgb(205, 227, 238)" stroke-width="2" opacity="0.9"/><path transform="translate(70,130)" d="M8.553415416286628,0A8.553415416286628,8.553415416286628,0,1,1,-8.553415416286628,0A8.553415416286628,8.553415416286628,0,1,1,8.553415416286628,0" fill="rgb(195, 103, 13)" stroke-width="2" opacity="0.9"/><path transform="translate(50,130)" d="M8.340240706845275,0A8.340240706845275,8.340240706845275,0,1,1,-8.340240706845275,0A8.340240706845275,8.340240706845275,0,1,1,8.340240706845275,0" fill="rgb(202, 111, 18)" stroke-width="2" opacity="0.9"/><path transform="translate(90,130)" d="M6.989162419134374,0A6.989162419134374,6.989162419134374,0,1,1,-6.989162419134374,0A6.989162419134374,6.989162419134374,0,1,1,6.989162419134374,0" fill="rgb(238, 160, 67)" stroke-width="2" opacity="0.9"/><path transform="translate(130,130)" d="M7.434529738749735,0A7.434529738749735,7.434529738749735,0,1,1,-7.434529738749735,0A7.434529738749735,7.434529738749735,0,1,1,7.434529738749735,0" fill="rgb(230, 144, 45)" stroke-width="2" opacity="0.9"/><path transform="translate(110,130)" d="M7.758142506625272,0A7.758142506625272,7.758142506625272,0,1,1,-7.758142506625272,0A7.758142506625272,7.758142506625272,0,1,1,7.758142506625272,0" fill="rgb(220, 133, 36)" stroke-width="2" opacity="0.9"/><path transform="translate(10,130)" d="M4.6380000797406185,0A4.6380000797406185,4.6380000797406185,0,1,1,-4.6380000797406185,0A4.6380000797406185,4.6380000797406185,0,1,1,4.6380000797406185,0" fill="rgb(252, 218, 173)" stroke-width="2" opacity="0.9"/><path transform="translate(30,130)" d="M5.518697241885448,0A5.518697241885448,5.518697241885448,0,1,1,-5.518697241885448,0A5.518697241885448,5.518697241885448,0,1,1,5.518697241885448,0" fill="rgb(251, 201, 138)" stroke-width="2" opacity="0.9"/><path transform="translate(30,170)" d="M1.7348719988405867,0A1.7348719988405867,1.7348719988405867,0,1,1,-1.7348719988405867,0A1.7348719988405867,1.7348719988405867,0,1,1,1.7348719988405867,0" fill="rgb(237, 238, 236)" stroke-width="2" opacity="0.9"/><path transform="translate(70,170)" d="M4.725818728749098,0A4.725818728749098,4.725818728749098,0,1,1,-4.725818728749098,0A4.725818728749098,4.725818728749098,0,1,1,4.725818728749098,0" fill="rgb(252, 216, 169)" stroke-width="2" opacity="0.9"/><path transform="translate(90,170)" d="M7.57816909499087,0A7.57816909499087,7.57816909499087,0,1,1,-7.57816909499087,0A7.57816909499087,7.57816909499087,0,1,1,7.57816909499087,0" fill="rgb(226, 139, 41)" stroke-width="2" opacity="0.9"/><path transform="translate(110,170)" d="M5.664024084823162,0A5.664024084823162,5.664024084823162,0,1,1,-5.664024084823162,0A5.664024084823162,5.664024084823162,0,1,1,5.664024084823162,0" fill="rgb(169, 208, 228)" stroke-width="2" opacity="0.9"/><path transform="translate(130,170)" d="M5.3216433216794,0A5.3216433216794,5.3216433216794,0,1,1,-5.3216433216794,0A5.3216433216794,5.3216433216794,0,1,1,5.3216433216794,0" fill="rgb(180, 214, 231)" stroke-width="2" opacity="0.9"/><path transform="translate(150,170)" d="M2.2951919409703962,0A2.2951919409703962,2.2951919409703962,0,1,1,-2.2951919409703962,0A2.2951919409703962,2.2951919409703962,0,1,1,2.2951919409703962,0" fill="rgb(233, 237, 236)" stroke-width="2" opacity="0.9"/><path transform="translate(170,170)" d="M2.5260563649969567,0A2.5260563649969567,2.5260563649969567,0,1,1,-2.5260563649969567,0A2.5260563649969567,2.5260563649969567,0,1,1,2.5260563649969567,0" fill="rgb(231, 236, 236)" stroke-width="2" opacity="0.9"/><path transform="translate(10,170)" d="M1.6900970488464333,0A1.6900970488464333,1.6900970488464333,0,1,1,-1.6900970488464333,0A1.6900970488464333,1.6900970488464333,0,1,1,1.6900970488464333,0" fill="rgb(237, 238, 236)" stroke-width="2" opacity="0.9"/><path transform="translate(50,170)" d="M4.556200247492015,0A4.556200247492015,4.556200247492015,0,1,1,-4.556200247492015,0A4.556200247492015,4.556200247492015,0,1,1,4.556200247492015,0" fill="rgb(252, 219, 175)" stroke-width="2" opacity="0.9"/></g><g class="mark-path role-mark concat_1_voronoi" role="graphics-symbol" aria-roledescription="path mark container"><path transform="translate(0,0)" d="M0,60L20,60L20,80L0,80Z" stroke-width="0.35"/><path transform="translate(0,0)" d="M40,80L20,80L20,60L40,60Z" stroke-width="0.35"/><path transform="translate(0,0)" d="M60,80L40,80L40,60L60,60Z" stroke-width="0.35"/><path transform="translate(0,0)" d="M160,0L80,80L60,80L60,60L120,0Z" stroke-width="0.35"/><path transform="translate(0,0)" d="M80,140L100,140L100,160L80,160Z" stroke-width="0.35"/><path transform="translate(0,0)" d="M220,100L160,160L140,160L140,140L220,60Z" stroke-width="0.35"/><path transform="translate(0,0)" d="M0,140L20,140L20,160L0,160Z" stroke-width="0.35"/><path transform="translate(0,0)" d="M40,160L20,160L20,140L40,140Z" stroke-width="0.35"/><path transform="translate(0,0)" d="M60,140L60,160L40,160L40,140Z" stroke-width="0.35"/><path transform="translate(0,0)" d="M80,140L80,160L60,160L60,140Z" stroke-width="0.35"/><path transform="translate(0,0)" d="M120,140L120,160L100,160L100,140Z" stroke-width="0.35"/><path transform="translate(0,0)" d="M120,140L140,140L140,160L120,160Z" stroke-width="0.35"/><path transform="translate(0,0)" d="M180,220L180,200L200,200L200,220Z" stroke-width="0.35"/><path transform="translate(0,0)" d="M220,220L200,220L200,200L220,180Z" stroke-width="0.35"/><path transform="translate(0,0)" d="M80,220L80,200L100,200L100,220Z" stroke-width="0.35"/><path transform="translate(0,0)" d="M60,220L60,200L80,200L80,220Z" stroke-width="0.35"/><path transform="translate(0,0)" d="M160,220L160,200L180,200L180,220Z" stroke-width="0.35"/><path transform="translate(0,0)" d="M140,220L140,200L160,200L160,220Z" stroke-width="0.35"/><path transform="translate(0,0)" d="M120,220L120,200L140,200L140,220Z" stroke-width="0.35"/><path transform="translate(0,0)" d="M100,220L100,200L120,200L120,220Z" stroke-width="0.35"/><path transform="translate(0,0)" d="M40,220L40,200L60,200L60,220Z" stroke-width="0.35"/><path transform="translate(0,0)" d="M20,220L20,200L40,200L40,220Z" stroke-width="0.35"/><path transform="translate(0,0)" d="M0,220L0,200L20,200L20,220Z" stroke-width="0.35"/><path transform="translate(0,0)" d="M0,20L20,20L20,40L0,40Z" stroke-width="0.35"/><path transform="translate(0,0)" d="M80,0L40,40L20,40L20,20L40,0Z" stroke-width="0.35"/><path transform="translate(0,0)" d="M0,0L40,0L20,20L0,20Z" stroke-width="0.35"/><path transform="translate(0,0)" d="M0,100L20,100L20,120L0,120Z" stroke-width="0.35"/><path transform="translate(0,0)" d="M80,100L80,120L60,120L60,100Z" stroke-width="0.35"/><path transform="translate(0,0)" d="M60,100L60,120L40,120L40,100Z" stroke-width="0.35"/><path transform="translate(0,0)" d="M40,100L40,120L20,120L20,100Z" stroke-width="0.35"/><path transform="translate(0,0)" d="M100,100L100,120L80,120L80,100Z" stroke-width="0.35"/><path transform="translate(0,0)" d="M220,0L220,20L120,120L100,120L100,100L200,0Z" stroke-width="0.35"/><path transform="translate(0,0)" d="M120,0L60,60L40,60L40,40L80,0Z" stroke-width="0.35"/><path transform="translate(0,0)" d="M40,60L20,60L20,40L40,40Z" stroke-width="0.35"/><path transform="translate(0,0)" d="M0,40L20,40L20,60L0,60Z" stroke-width="0.35"/><path transform="translate(0,0)" d="M200,0L100,100L80,100L80,80L160,0Z" stroke-width="0.35"/><path transform="translate(0,0)" d="M80,100L60,100L60,80L80,80Z" stroke-width="0.35"/><path transform="translate(0,0)" d="M40,100L20,100L20,80L40,80Z" stroke-width="0.35"/><path transform="translate(0,0)" d="M0,80L20,80L20,100L0,100Z" stroke-width="0.35"/><path transform="translate(0,0)" d="M60,100L40,100L40,80L60,80Z" stroke-width="0.35"/><path transform="translate(0,0)" d="M140,180L140,200L120,200L120,180Z" stroke-width="0.35"/><path transform="translate(0,0)" d="M100,180L100,200L80,200L80,180Z" stroke-width="0.35"/><path transform="translate(0,0)" d="M80,180L80,200L60,200L60,180Z" stroke-width="0.35"/><path transform="translate(0,0)" d="M120,180L120,200L100,200L100,180Z" stroke-width="0.35"/><path transform="translate(0,0)" d="M60,180L60,200L40,200L40,180Z" stroke-width="0.35"/><path transform="translate(0,0)" d="M40,180L40,200L20,200L20,180Z" stroke-width="0.35"/><path transform="translate(0,0)" d="M220,180L200,200L180,200L180,180L220,140Z" stroke-width="0.35"/><path transform="translate(0,0)" d="M160,200L160,180L180,180L180,200Z" stroke-width="0.35"/><path transform="translate(0,0)" d="M160,180L160,200L140,200L140,180Z" stroke-width="0.35"/><path transform="translate(0,0)" d="M0,180L20,180L20,200L0,200Z" stroke-width="0.35"/><path transform="translate(0,0)" d="M80,120L80,140L60,140L60,120Z" stroke-width="0.35"/><path transform="translate(0,0)" d="M60,140L40,140L40,120L60,120Z" stroke-width="0.35"/><path transform="translate(0,0)" d="M100,120L100,140L80,140L80,120Z" stroke-width="0.35"/><path transform="translate(0,0)" d="M220,60L140,140L120,140L120,120L220,20Z" stroke-width="0.35"/><path transform="translate(0,0)" d="M100,120L120,120L120,140L100,140Z" stroke-width="0.35"/><path transform="translate(0,0)" d="M0,120L20,120L20,140L0,140Z" stroke-width="0.35"/><path transform="translate(0,0)" d="M40,140L20,140L20,120L40,120Z" stroke-width="0.35"/><path transform="translate(0,0)" d="M40,160L40,180L20,180L20,160Z" stroke-width="0.35"/><path transform="translate(0,0)" d="M80,160L80,180L60,180L60,160Z" stroke-width="0.35"/><path transform="translate(0,0)" d="M80,160L100,160L100,180L80,180Z" stroke-width="0.35"/><path transform="translate(0,0)" d="M120,160L120,180L100,180L100,160Z" stroke-width="0.35"/><path transform="translate(0,0)" d="M140,160L140,180L120,180L120,160Z" stroke-width="0.35"/><path transform="translate(0,0)" d="M140,160L160,160L160,180L140,180Z" stroke-width="0.35"/><path transform="translate(0,0)" d="M220,140L180,180L160,180L160,160L220,100Z" stroke-width="0.35"/><path transform="translate(0,0)" d="M0,160L20,160L20,180L0,180Z" stroke-width="0.35"/><path transform="translate(0,0)" d="M40,160L60,160L60,180L40,180Z" stroke-width="0.35"/></g><g class="mark-group role-title"><g transform="translate(110,-17.7)"><path class="background" aria-hidden="true" d="M0,0h0v0h0Z" pointer-events="none"/><g><g class="mark-text role-title-text" role="graphics-symbol" aria-roledescription="title" aria-label="Title text 'Spearman correlations'" pointer-events="none"><text text-anchor="middle" transform="translate(0,10)" font-family="sans-serif" font-size="13px" font-weight="bold" fill="#000" opacity="1">Spearman correlations</text></g></g><path class="foreground" aria-hidden="true" d="" pointer-events="none" display="none"/></g></g></g><path class="foreground" aria-hidden="true" d="" display="none"/></g></g><g class="mark-group role-legend" role="graphics-symbol" aria-roledescription="legend" aria-label="Gradient legend for fill color with values from −1.0 to 1.0"><g transform="translate(486,0)"><path class="background" aria-hidden="true" d="M0,0h38v200h-38Z" pointer-events="none"/><g><g class="mark-group role-legend-entry"><g transform="translate(0,0)"><path class="background" aria-hidden="true" d="M0,0h0v0h0Z" pointer-events="none"/><g><g class="mark-rect role-legend-gradient" pointer-events="none"><path d="M0,0h16v200h-16Z" fill="url(#gradient_0)" stroke="#ddd" stroke-width="0" opacity="0.9"/></g><g class="mark-text role-legend-label" pointer-events="none"><text text-anchor="start" transform="translate(18,198)" font-family="sans-serif" font-size="10px" fill="#000" opacity="1">−1.0</text><text text-anchor="start" transform="translate(18,153)" font-family="sans-serif" font-size="10px" fill="#000" opacity="1">−0.5</text><text text-anchor="start" transform="translate(18,103)" font-family="sans-serif" font-size="10px" fill="#000" opacity="1">0.0</text><text text-anchor="start" transform="translate(18,53)" font-family="sans-serif" font-size="10px" fill="#000" opacity="1">0.5</text><text text-anchor="start" transform="translate(18,8)" font-family="sans-serif" font-size="10px" fill="#000" opacity="1">1.0</text></g></g><path class="foreground" aria-hidden="true" d="" pointer-events="none" display="none"/></g></g></g><path class="foreground" aria-hidden="true" d="" pointer-events="none" display="none"/></g></g></g><path class="foreground" aria-hidden="true" d="" display="none"/></g></g></g><defs><linearGradient id="gradient_0" x1="0" x2="0" y1="1" y2="0"><stop offset="0" stop-color="rgb(19, 75, 133)"/><stop offset="0.04999999999999999" stop-color="rgb(33, 98, 156)"/><stop offset="0.09999999999999998" stop-color="rgb(47, 120, 179)"/><stop offset="0.15000000000000002" stop-color="rgb(70, 141, 191)"/><stop offset="0.2" stop-color="rgb(93, 162, 203)"/><stop offset="0.25" stop-color="rgb(125, 182, 214)"/><stop offset="0.3" stop-color="rgb(157, 202, 225)"/><stop offset="0.35" stop-color="rgb(184, 216, 232)"/><stop offset="0.4" stop-color="rgb(210, 229, 239)"/><stop offset="0.45" stop-color="rgb(226, 235, 237)"/><stop offset="0.5" stop-color="rgb(242, 240, 235)"/><stop offset="0.55" stop-color="rgb(247, 232, 211)"/><stop offset="0.6" stop-color="rgb(252, 224, 186)"/><stop offset="0.65" stop-color="rgb(252, 208, 151)"/><stop offset="0.7" stop-color="rgb(251, 191, 116)"/><stop offset="0.75" stop-color="rgb(242, 169, 82)"/><stop offset="0.8" stop-color="rgb(232, 147, 47)"/><stop offset="0.85" stop-color="rgb(215, 126, 30)"/><stop offset="0.9" stop-color="rgb(197, 105, 13)"/><stop offset="0.95" stop-color="rgb(175, 90, 10)"/><stop offset="1" stop-color="rgb(153, 74, 7)"/></linearGradient></defs></svg>