<svg xmlns="http://www.w3.org/2000/svg" xmlns:xlink="http://www.w3.org/1999/xlink" version="1.1" class="marks" width="521" height="261" viewBox="0 0 521 261"><rect width="521" height="261" fill="white"/><g fill="none" stroke-miterlimit="10" transform="translate(191,23)"><g class="mark-group role-frame root" role="graphics-object" aria-roledescription="group mark container"><g transform="translate(0,0)"><path class="background" aria-hidden="true" d="M0,0h0v0h0Z"/><g><g class="mark-group role-scope concat_0_group" role="graphics-object" aria-roledescription="group mark container"><g transform="translate(0,0)"><path class="background" aria-hidden="true" d="M0,0h100v100h-100Z" stroke="#ddd" stroke-width="0"/><g><g class="mark-group role-axis" role="graphics-symbol" aria-roledescription="axis" aria-label="X-axis for a discrete scale with 5 values: Internações - Dengue, Hidrografia, Incremento, Densidade demográfica, Extensão da rede de esgoto"><g transform="translate(0.5,100.5)"><path class="background" aria-hidden="true" d="M0,0h0v0h0Z" pointer-events="none"/><g><g class="mark-rule role-axis-tick" pointer-events="none"><line transform="translate(10,0)" x2="0" y2="5" stroke="#888" stroke-width="1" opacity="1"/><line transform="translate(30,0)" x2="0" y2="5" stroke="#888" stroke-width="1" opacity="1"/><line transform="translate(50,0)" x2="0" y2="5" stroke="#888" stroke-width="1" opacity="1"/><line transform="translate(70,0)" x2="0" y2="5" stroke="#888" stroke-width="1" opacity="1"/><line transform="translate(90,0)" x2="0" y2="5" stroke="#888" stroke-width="1" opacity="1"/></g><g class="mark-text role-axis-label" pointer-events="none"><text text-anchor="end" transform="translate(10,7) rotate(270) translate(0,3)" font-family="sans-serif" font-size="10px" fill="#000" opacity="1">Internações - Dengue</text><text text-anchor="end" transform="translate(30,7) rotate(270) translate(0,3)" font-family="sans-serif" font-size="10px" fill="#000" opacity="1">Hidrografia</text><text text-anchor="end" transform="translate(50,7) rotate(270) translate(0,3)" font-family="sans-serif" font-size="10px" fill="#000" opacity="1">Incremento</text><text text-anchor="end" transform="translate(70,7) rotate(270) translate(0,3)" font-family="sans-serif" font-size="10px" fill="#000" opacity="1">Densidade demográfica</text><text text-anchor="end" transform="translate(90,7) rotate(270) translate(0,3)" font-family="sans-serif" font-size="10px" fill="#000" opacity="1">Extensão da rede de esgoto</text></g><g class="mark-rule role-axis-domain" pointer-events="none"><line transform="translate(0,0)" x2="100" y2="0" stroke="#888" stroke-width="1" opacity="1"/></g></g><path class="foreground" aria-hidden="true" d="" pointer-events="none" display="none"/></g></g><g class="mark-group role-axis" role="graphics-symbol" aria-roledescription="axis" aria-label="Y-axis for a discrete scale with 5 values: Hidrografia, Incremento, Densidade demográfica, Extensão da rede de esgoto, População sem acesso a coleta de esgoto"><g transform="translate(0.5,0.5)"><path class="background" aria-hidden="true" d="M0,0h0v0h0Z" pointer-events="none"/><g><g class="mark-rule role-axis-tick" pointer-events="none"><line transform="translate(0,10)" x2="-5" y2="0" stroke="#888" stroke-width="1" opacity="1"/><line transform="translate(0,30)" x2="-5" y2="0" stroke="#888" stroke-width="1" opacity="1"/><line transform="translate(0,50)" x2="-5" y2="0" stroke="#888" stroke-width="1" opacity="1"/><line transform="translate(0,70)" x2="-5" y2="0" stroke="#888" stroke-width="1" opacity="1"/><line transform="translate(0,90)" x2="-5" y2="0" stroke="#888" stroke-width="1" opacity="1"/></g><g class="mark-text role-axis-label" pointer-events="none"><text text-anchor="end" transform="translate(-7,13)" font-family="sans-serif" font-size="10px" fill="#000" opacity="1">Hidrografia</text><text text-anchor="end" transform="translate(-7,33)" font-family="sans-serif" font-size="10px" fill="#000" opacity="1">Incremento</text><text text-anchor="end" transform="translate(-7,53)" font-family="sans-serif" font-size="10px" fill="#000" opacity="1">Densidade demográfica</text><text text-anchor="end" transform="translate(-7,73)" font-family="sans-serif" font-size="10px" fill="#000" opacity="1">Extensão da rede de esgoto</text><text text-anchor="end" transform="translate(-7,93)" font-family="sans-serif" font-size="10px" fill="#000" opacity="1">População sem acesso a coleta de es…</text></g><g class="mark-rule role-axis-domain" pointer-events="none"><line transform="translate(0,0)" x2="0" y2="100" stroke="#888" stroke-width="1" opacity="1"/></g></g><path class="foreground" aria-hidden="true" d="" pointer-events="none" display="none"/></g></g><g class="mark-symbol role-mark concat_0_marks" role="graphics-symbol" aria-roledescription="symbol mark container"><path transform="translate(90,90)" d="M3.219156478416255,0A3.219156478416255,3.219156478416255,0,1,1,-3.219156478416255,0A3.219156478416255,3.219156478416255,0,1,1,3.219156478416255,0" fill="rgb(224, 234, 237)" stroke-width="2" opacity="0.9"/><path transform="translate(70,90)" d="M6.71304505454879,0A6.71304505454879,6.71304505454879,0,1,1,-6.71304505454879,0A6.71304505454879,6.71304505454879,0,1,1,6.71304505454879,0" fill="rgb(242, 169, 82)" stroke-width="2" opacity="0.9"/><path transform="translate(50,90)" d="M8.610021466987085,0A8.610021466987085,8.610021466987085,0,1,1,-8.610021466987085,0A8.610021466987085,8.610021466987085,0,1,1,8.610021466987085,0" fill="rgb(192, 102, 12)" stroke-width="2" opacity="0.9"/><path transform="translate(30,90)" d="M8.608105234076154,0A8.608105234076154,8.608105234076154,0,1,1,-8.608105234076154,0A8.608105234076154,8.608105234076154,0,1,1,8.608105234076154,0" fill="rgb(192, 102, 12)" stroke-width="2" opacity="0.9"/><path transform="translate(10,90)" d="M7.3681088094588585,0A7.3681088094588585,7.3681088094588585,0,1,1,-7.3681088094588585,0A7.3681088094588585,7.3681088094588585,0,1,1,7.3681088094588585,0" fill="rgb(232, 147, 47)" stroke-width="2" opacity="0.9"/><path transform="translate(30,30)" d="M7.8489196637985685,0A7.8489196637985685,7.8489196637985685,0,1,1,-7.8489196637985685,0A7.8489196637985685,7.8489196637985685,0,1,1,7.8489196637985685,0" fill="rgb(218, 130, 33)" stroke-width="2" opacity="0.9"/><path transform="translate(10,30)" d="M7.225863190053201,0A7.225863190053201,7.225863190053201,0,1,1,-7.225863190053201,0A7.225863190053201,7.225863190053201,0,1,1,7.225863190053201,0" fill="rgb(234, 152, 54)" stroke-width="2" opacity="0.9"/><path transform="translate(10,10)" d="M6.41202574199238,0A6.41202574199238,6.41202574199238,0,1,1,-6.41202574199238,0A6.41202574199238,6.41202574199238,0,1,1,6.41202574199238,0" fill="rgb(246, 179, 97)" stroke-width="2" opacity="0.9"/><path transform="translate(70,70)" d="M5.949996748628534,0A5.949996748628534,5.949996748628534,0,1,1,-5.949996748628534,0A5.949996748628534,5.949996748628534,0,1,1,5.949996748628534,0" fill="rgb(251, 192, 119)" stroke-width="2" opacity="0.9"/><path transform="translate(50,70)" d="M4.452718727524859,0A4.452718727524859,4.452718727524859,0,1,1,-4.452718727524859,0A4.452718727524859,4.452718727524859,0,1,1,4.452718727524859,0" fill="rgb(205, 226, 238)" stroke-width="2" opacity="0.9"/><path transform="translate(30,70)" d="M5.048594275888034,0A5.048594275888034,5.048594275888034,0,1,1,-5.048594275888034,0A5.048594275888034,5.048594275888034,0,1,1,5.048594275888034,0" fill="rgb(188, 218, 233)" stroke-width="2" opacity="0.9"/><path transform="translate(10,70)" d="M4.491014142116741,0A4.491014142116741,4.491014142116741,0,1,1,-4.491014142116741,0A4.491014142116741,4.491014142116741,0,1,1,4.491014142116741,0" fill="rgb(204, 226, 237)" stroke-width="2" opacity="0.9"/><path transform="translate(50,50)" d="M6.132249692432909,0A6.132249692432909,6.132249692432909,0,1,1,-6.132249692432909,0A6.132249692432909,6.132249692432909,0,1,1,6.132249692432909,0" fill="rgb(249, 187, 110)" stroke-width="2" opacity="0.9"/><path transform="translate(30,50)" d="M3.94962112055754,0A3.94962112055754,3.94962112055754,0,1,1,-3.94962112055754,0A3.94962112055754,3.94962112055754,0,1,1,3.94962112055754,0" fill="rgb(251, 226, 193)" stroke-width="2" opacity="0.9"/><path transform="translate(10,50)" d="M4.798015469079641,0A4.798015469079641,4.798015469079641,0,1,1,-4.798015469079641,0A4.798015469079641,4.798015469079641,0,1,1,4.798015469079641,0" fill="rgb(252, 215, 167)" stroke-width="2" opacity="0.9"/></g><g class="mark-path role-mark concat_0_voronoi" role="graphics-symbol" aria-roledescription="path mark container"><path transform="translate(0,0)" d="M100,100L80,100L80,80L100,60Z" stroke-width="0.35"/><path transform="translate(0,0)" d="M60,100L60,80L80,80L80,100Z" stroke-width="0.35"/><path transform="translate(0,0)" d="M40,100L40,80L60,80L60,100Z" stroke-width="0.35"/><path transform="translate(0,0)" d="M20,100L20,80L40,80L40,100Z" stroke-width="0.35"/><path transform="translate(0,0)" d="M0,100L0,80L20,80L20,100Z" stroke-width="0.35"/><path transform="translate(0,0)" d="M80,0L40,40L20,40L20,20L40,0Z" stroke-width="0.35"/><path transform="translate(0,0)" d="M0,20L20,20L20,40L0,40Z" stroke-width="0.35"/><path transform="translate(0,0)" d="M0,0L40,0L20,20L0,20Z" stroke-width="0.35"/><path transform="translate(0,0)" d="M100,60L80,80L60,80L60,60L100,20Z" stroke-width="0.35"/><path transform="translate(0,0)" d="M60,60L60,80L40,80L40,60Z" stroke-width="0.35"/><path transform="translate(0,0)" d="M40,60L40,80L20,80L20,60Z" stroke-width="0.35"/><path transform="translate(0,0)" d="M0,60L20,60L20,80L0,80Z" stroke-width="0.35"/><path transform="translate(0,0)" d="M100,0L100,20L60,60L40,60L40,40L80,0Z" stroke-width="0.35"/><path transform="translate(0,0)" d="M40,60L20,60L20,40L40,40Z" stroke-width="0.35"/><path transform="translate(0,0)" d="M0,40L20,40L20,60L0,60Z" stroke-width="0.35"/></g><g class="mark-group role-title"><g transform="translate(50,-17.7)"><path class="background" aria-hidden="true" d="M0,0h0v0h0Z" pointer-events="none"/><g><g class="mark-text role-title-text" role="graphics-symbol" aria-roledescription="title" aria-label="Title text 'Pearson correlations'" pointer-events="none"><text text-anchor="middle" transform="translate(0,10)" font-family="sans-serif" font-size="13px" font-weight="bold" fill="#000" opacity="1">Pearson correlations</text></g></g><path class="foreground" aria-hidden="true" d="" pointer-events="none" display="none"/></g></g></g><path class="foreground" aria-hidden="true" d="" display="none"/></g></g><g class="mark-group role-scope concat_1_group" role="graphics-object" aria-roledescription="group mark container"><g transform="translate(156,0)"><path class="background" aria-hidden="true" d="M0,0h100v100h-100Z" stroke="#ddd" stroke-width="0"/><g><g class="mark-group role-axis" role="graphics-symbol" aria-roledescription="axis" aria-label="X-axis for a discrete scale with 5 values: Internações - Dengue, Hidrografia, Incremento, Densidade demográfica, Extensão da rede de esgoto"><g transform="translate(0.5,100.5)"><path class="background" aria-hidden="true" d="M0,0h0v0h0Z" pointer-events="none"/><g><g class="mark-rule role-axis-tick" pointer-events="none"><line transform="translate(10,0)" x2="0" y2="5" stroke="#888" stroke-width="1" opacity="1"/><line transform="translate(30,0)" x2="0" y2="5" stroke="#888" stroke-width="1" opacity="1"/><line transform="translate(50,0)" x2="0" y2="5" stroke="#888" stroke-width="1" opacity="1"/><line transform="translate(70,0)" x2="0" y2="5" stroke="#888" stroke-width="1" opacity="1"/><line transform="translate(90,0)" x2="0" y2="5" stroke="#888" stroke-width="1" opacity="1"/></g><g class="mark-text role-axis-label" pointer-events="none"><text text-anchor="end" transform="translate(10,7) rotate(270) translate(0,3)" font-family="sans-serif" font-size="10px" fill="#000" opacity="1">Internações - Dengue</text><text text-anchor="end" transform="translate(30,7) rotate(270) translate(0,3)" font-family="sans-serif" font-size="10px" fill="#000" opacity="1">Hidrografia</text><text text-anchor="end" transform="translate(50,7) rotate(270) translate(0,3)" font-family="sans-serif" font-size="10px" fill="#000" opacity="1">Incremento</text><text text-anchor="end" transform="translate(70,7) rotate(270) translate(0,3)" font-family="sans-serif" font-size="10px" fill="#000" opacity="1">Densidade demográfica</text><text text-anchor="end" transform="translate(90,7) rotate(270) translate(0,3)" font-family="sans-serif" font-size="10px" fill="#000" opacity="1">Extensão da rede de esgoto</text></g><g class="mark-rule role-axis-domain" pointer-events="none"><line transform="translate(0,0)" x2="100" y2="0" stroke="#888" stroke-width="1" opacity="1"/></g></g><path class="foreground" aria-hidden="true" d="" pointer-events="none" display="none"/></g></g><g class="mark-group role-axis" role="graphics-symbol" aria-roledescription="axis" aria-label="Y-axis for a discrete scale with 5 values: Hidrografia, Incremento, Densidade demográfica, Extensão da rede de esgoto, População sem acesso a coleta de esgoto"><g transform="translate(0.5,0.5)"><path class="background" aria-hidden="true" d="M0,0h0v0h0Z" pointer-events="none"/><g><g class="mark-rule role-axis-tick" pointer-events="none"><line transform="translate(0,10)" x2="-5" y2="0" stroke="#888" stroke-width="1" opacity="1"/><line transform="translate(0,30)" x2="-5" y2="0" stroke="#888" stroke-width="1" opacity="1"/><line transform="translate(0,50)" x2="-5" y2="0" stroke="#888" stroke-width="1" opacity="1"/><line transform="translate(0,70)" x2="-5" y2="0" stroke="#888" stroke-width="1" opacity="1"/><line transform="translate(0,90)" x2="-5" y2="0" stroke="#888" stroke-width="1" opacity="1"/></g><g class="mark-rule role-axis-domain" pointer-events="none"><line transform="translate(0,0)" x2="0" y2="100" stroke="#888" stroke-width="1" opacity="1"/></g></g><path class="foreground" aria-hidden="true" d="" pointer-events="none" display="none"/></g></g><g class="mark-symbol role-mark concat_1_marks" role="graphics-symbol" aria-roledescription="symbol mark container"><path transform="translate(90,90)" d="M3.151587811931374,0A3.151587811931374,3.151587811931374,0,1,1,-3.151587811931374,0A3.151587811931374,3.151587811931374,0,1,1,3.151587811931374,0" fill="rgb(248, 231, 208)" stroke-width="2" opacity="0.9"/><path transform="translate(70,90)" d="M6.344390808018605,0A6.344390808018605,6.344390808018605,0,1,1,-6.344390808018605,0A6.344390808018605,6.344390808018605,0,1,1,6.344390808018605,0" fill="rgb(247, 181, 100)" stroke-width="2" opacity="0.9"/><path transform="translate(50,90)" d="M7.4163052411211705,0A7.4163052411211705,7.4163052411211705,0,1,1,-7.4163052411211705,0A7.4163052411211705,7.4163052411211705,0,1,1,7.4163052411211705,0" fill="rgb(230, 145, 45)" stroke-width="2" opacity="0.9"/><path transform="translate(30,90)" d="M9.06745164759868,0A9.06745164759868,9.06745164759868,0,1,1,-9.06745164759868,0A9.06745164759868,9.06745164759868,0,1,1,9.06745164759868,0" fill="rgb(173, 88, 10)" stroke-width="2" opacity="0.9"/><path transform="translate(10,90)" d="M6.687652765972866,0A6.687652765972866,6.687652765972866,0,1,1,-6.687652765972866,0A6.687652765972866,6.687652765972866,0,1,1,6.687652765972866,0" fill="rgb(242, 170, 83)" stroke-width="2" opacity="0.9"/><path transform="translate(30,30)" d="M7.266561237011622,0A7.266561237011622,7.266561237011622,0,1,1,-7.266561237011622,0A7.266561237011622,7.266561237011622,0,1,1,7.266561237011622,0" fill="rgb(233, 150, 52)" stroke-width="2" opacity="0.9"/><path transform="translate(10,30)" d="M6.593754245178757,0A6.593754245178757,6.593754245178757,0,1,1,-6.593754245178757,0A6.593754245178757,6.593754245178757,0,1,1,6.593754245178757,0" fill="rgb(243, 173, 88)" stroke-width="2" opacity="0.9"/><path transform="translate(10,10)" d="M6.3855905071097,0A6.3855905071097,6.3855905071097,0,1,1,-6.3855905071097,0A6.3855905071097,6.3855905071097,0,1,1,6.3855905071097,0" fill="rgb(246, 180, 98)" stroke-width="2" opacity="0.9"/><path transform="translate(70,70)" d="M7.919300825711698,0A7.919300825711698,7.919300825711698,0,1,1,-7.919300825711698,0A7.919300825711698,7.919300825711698,0,1,1,7.919300825711698,0" fill="rgb(215, 127, 31)" stroke-width="2" opacity="0.9"/><path transform="translate(50,70)" d="M6.801933600285578,0A6.801933600285578,6.801933600285578,0,1,1,-6.801933600285578,0A6.801933600285578,6.801933600285578,0,1,1,6.801933600285578,0" fill="rgb(121, 179, 213)" stroke-width="2" opacity="0.9"/><path transform="translate(30,70)" d="M3.190296000527189,0A3.190296000527189,3.190296000527189,0,1,1,-3.190296000527189,0A3.190296000527189,3.190296000527189,0,1,1,3.190296000527189,0" fill="rgb(248, 231, 207)" stroke-width="2" opacity="0.9"/><path transform="translate(10,70)" d="M4.503007351124733,0A4.503007351124733,4.503007351124733,0,1,1,-4.503007351124733,0A4.503007351124733,4.503007351124733,0,1,1,4.503007351124733,0" fill="rgb(203, 226, 237)" stroke-width="2" opacity="0.9"/><path transform="translate(50,50)" d="M2.458901169833325,0A2.458901169833325,2.458901169833325,0,1,1,-2.458901169833325,0A2.458901169833325,2.458901169833325,0,1,1,2.458901169833325,0" fill="rgb(231, 236, 236)" stroke-width="2" opacity="0.9"/><path transform="translate(30,50)" d="M5.897137961530316,0A5.897137961530316,5.897137961530316,0,1,1,-5.897137961530316,0A5.897137961530316,5.897137961530316,0,1,1,5.897137961530316,0" fill="rgb(251, 193, 121)" stroke-width="2" opacity="0.9"/><path transform="translate(10,50)" d="M3.5540369438898614,0A3.5540369438898614,3.5540369438898614,0,1,1,-3.5540369438898614,0A3.5540369438898614,3.5540369438898614,0,1,1,3.5540369438898614,0" fill="rgb(249, 229, 201)" stroke-width="2" opacity="0.9"/></g><g class="mark-path role-mark concat_1_voronoi" role="graphics-symbol" aria-roledescription="path mark container"><path transform="translate(0,0)" d="M100,100L80,100L80,80L100,60Z" stroke-width="0.35"/><path transform="translate(0,0)" d="M60,100L60,80L80,80L80,100Z" stroke-width="0.35"/><path transform="translate(0,0)" d="M40,100L40,80L60,80L60,100Z" stroke-width="0.35"/><path transform="translate(0,0)" d="M20,100L20,80L40,80L40,100Z" stroke-width="0.35"/><path transform="translate(0,0)" d="M0,100L0,80L20,80L20,100Z" stroke-width="0.35"/><path transform="translate(0,0)" d="M80,0L40,40L20,40L20,20L40,0Z" stroke-width="0.35"/><path transform="translate(0,0)" d="M0,20L20,20L20,40L0,40Z" stroke-width="0.35"/><path transform="translate(0,0)" d="M0,0L40,0L20,20L0,20Z" stroke-width="0.35"/><path transform="translate(0,0)" d="M100,60L80,80L60,80L60,60L100,20Z" stroke-width="0.35"/><path transform="translate(0,0)" d="M60,60L60,80L40,80L40,60Z" stroke-width="0.35"/><path transform="translate(0,0)" d="M40,60L40,80L20,80L20,60Z" stroke-width="0.35"/><path transform="translate(0,0)" d="M0,60L20,60L20,80L0,80Z" stroke-width="0.35"/><path transform="translate(0,0)" d="M100,0L100,20L60,60L40,60L40,40L80,0Z" stroke-width="0.35"/><path transform="translate(0,0)" d="M40,60L20,60L20,40L40,40Z" stroke-width="0.35"/><path transform="translate(0,0)" d="M0,40L20,40L20,60L0,60Z" stroke-width="0.35"/></g><g class="mark-group role-title"><g transform="translate(50,-17.7)"><path class="background" aria-hidden="true" d="M0,0h0v0h0Z" pointer-events="none"/><g><g class="mark-text role-title-text" role="graphics-symbol" aria-roledescription="title" aria-label="Title text 'Spearman correlations'" pointer-events="none"><text text-anchor="middle" transform="translate(0,10)" font-family="sans-serif" font-size="13px" font-weight="bold" fill="#000" opacity="1">Spearman correlations</text></g></g><path class="foreground" aria-hidden="true" d="" pointer-events="none" display="none"/></g></g></g><path class="foreground" aria-hidden="true" d="" display="none"/></g></g><g class="mark-group role-legend" role="graphics-symbol" aria-roledescription="legend" aria-label="Gradient legend for fill color with values from −1.0 to 1.0"><g transform="translate(295,0)"><path class="background" aria-hidden="true" d="M0,0h30v100h-30Z" pointer-events="none"/><g><g class="mark-group role-legend-entry"><g transform="translate(0,0)"><path class="background" aria-hidden="true" d="M0,0h0v0h0Z" pointer-events="none"/><g><g class="mark-rect role-legend-gradient" pointer-events="none"><path d="M0,0h16v100h-16Z" fill="url(#gradient_0)" stroke="#ddd" stroke-width="0" opacity="0.9"/></g><g class="mark-text role-legend-label" pointer-events="none"><text text-anchor="start" transform="translate(18,98)" font-family="sans-serif" font-size="10px" fill="#000" opacity="1">−1</text><text text-anchor="start" transform="translate(18,53)" font-family="sans-serif" font-size="10px" fill="#000" opacity="1">0</text><text text-anchor="start" transform="translate(18,8)" font-family="sans-serif" font-size="10px" fill="#000" opacity="1">1</text></g></g><path class="foreground" aria-hidden="true" d="" pointer-events="none" display="none"/></g></g></g><path class="foreground" aria-hidden="true" d="" pointer-events="none" display="none"/></g></g></g><path class="foreground" aria-hidden="true" d="" display="none"/></g></g></g><defs><linearGradient id="gradient_0" x1="0" x2="0" y1="1" y2="0"><stop offset="0" stop-color="rgb(19, 75, 133)"/><stop offset="0.04999999999999999" stop-color="rgb(33, 98, 156)"/><stop offset="0.09999999999999998" stop-color="rgb(47, 120, 179)"/><stop offset="0.15000000000000002" stop-color="rgb(70, 141, 191)"/><stop offset="0.2" stop-color="rgb(93, 162, 203)"/><stop offset="0.25" stop-color="rgb(125, 182, 214)"/><stop offset="0.3" stop-color="rgb(157, 202, 225)"/><stop offset="0.35" stop-color="rgb(184, 216, 232)"/><stop offset="0.4" stop-color="rgb(210, 229, 239)"/><stop offset="0.45" stop-color="rgb(226, 235, 237)"/><stop offset="0.5" stop-color="rgb(242, 240, 235)"/><stop offset="0.55" stop-color="rgb(247, 232, 211)"/><stop offset="0.6" stop-color="rgb(252, 224, 186)"/><stop offset="0.65" stop-color="rgb(252, 208, 151)"/><stop offset="0.7" stop-color="rgb(251, 191, 116)"/><stop offset="0.75" stop-color="rgb(242, 169, 82)"/><stop offset="0.8" stop-color="rgb(232, 147, 47)"/><stop offset="0.85" stop-color="rgb(215, 126, 30)"/><stop offset="0.9" stop-color="rgb(197, 105, 13)"/><stop offset="0.95" stop-color="rgb(175, 90, 10)"/><stop offset="1" stop-color="rgb(153, 74, 7)"/></linearGradient></defs></svg>