<svg xmlns="http://www.w3.org/2000/svg" xmlns:xlink="http://www.w3.org/1999/xlink" version="1.1" class="marks" width="865" height="382" viewBox="0 0 865 382"><rect width="865" height="382" fill="white"/><g fill="none" stroke-miterlimit="10" transform="translate(60,28)"><g class="mark-group role-frame root" role="graphics-object" aria-roledescription="group mark container"><g transform="translate(0,0)"><path class="background" aria-hidden="true" d="M0.5,0.5h800v300h-800Z" stroke="#ddd"/><g><g class="mark-group role-axis" role="graphics-symbol" aria-roledescription="axis" aria-label="Y-axis for a linear scale with values from 0 to 6,000"><g transform="translate(0.5,0.5)"><path class="background" aria-hidden="true" d="M0,0h0v0h0Z" pointer-events="none"/><g><g class="mark-rule role-axis-grid" pointer-events="none"><line transform="translate(0,300)" x2="800" y2="0" stroke="#ddd" stroke-width="1" opacity="1"/><line transform="translate(0,250)" x2="800" y2="0" stroke="#ddd" stroke-width="1" opacity="1"/><line transform="translate(0,200)" x2="800" y2="0" stroke="#ddd" stroke-width="1" opacity="1"/><line transform="translate(0,150)" x2="800" y2="0" stroke="#ddd" stroke-width="1" opacity="1"/><line transform="translate(0,100)" x2="800" y2="0" stroke="#ddd" stroke-width="1" opacity="1"/><line transform="translate(0,50)" x2="800" y2="0" stroke="#ddd" stroke-width="1" opacity="1"/><line transform="translate(0,0)" x2="800" y2="0" stroke="#ddd" stroke-width="1" opacity="1"/></g></g><path class="foreground" aria-hidden="true" d="" pointer-events="none" display="none"/></g></g><g class="mark-group role-axis" role="graphics-symbol" aria-roledescription="axis" aria-label="X-axis titled 'Ano' for a discrete scale with 12 values: 2008, 2009, 2010, 2011, 2012, ending with 2019"><g transform="translate(0.5,300.5)"><path class="background" aria-hidden="true" d="M0,0h0v0h0Z" pointer-events="none"/><g><g class="mark-rule role-axis-tick" pointer-events="none"><line transform="translate(33,0)" x2="0" y2="5" stroke="#888" stroke-width="1" opacity="1"/><line transform="translate(100,0)" x2="0" y2="5" stroke="#888" stroke-width="1" opacity="1"/><line transform="translate(166,0)" x2="0" y2="5" stroke="#888" stroke-width="1" opacity="1"/><line transform="translate(233,0)" x2="0" y2="5" stroke="#888" stroke-width="1" opacity="1"/><line transform="translate(300,0)" x2="0" y2="5" stroke="#888" stroke-width="1" opacity="1"/><line transform="translate(366,0)" x2="0" y2="5" stroke="#888" stroke-width="1" opacity="1"/><line transform="translate(433,0)" x2="0" y2="5" stroke="#888" stroke-width="1" opacity="1"/><line transform="translate(500,0)" x2="0" y2="5" stroke="#888" stroke-width="1" opacity="1"/><line transform="translate(566,0)" x2="0" y2="5" stroke="#888" stroke-width="1" opacity="1"/><line transform="translate(633,0)" x2="0" y2="5" stroke="#888" stroke-width="1" opacity="1"/><line transform="translate(700,0)" x2="0" y2="5" stroke="#888" stroke-width="1" opacity="1"/><line transform="translate(766,0)" x2="0" y2="5" stroke="#888" stroke-width="1" opacity="1"/></g><g class="mark-text role-axis-label" pointer-events="none"><text text-anchor="end" transform="translate(32.833333333333336,7) rotate(270) translate(0,4)" font-family="sans-serif" font-size="12px" fill="#000" opacity="1">2008</text><text text-anchor="end" transform="translate(99.5,7) rotate(270) translate(0,4)" font-family="sans-serif" font-size="12px" fill="#000" opacity="1">2009</text><text text-anchor="end" transform="translate(166.16666666666669,7) rotate(270) translate(0,4)" font-family="sans-serif" font-size="12px" fill="#000" opacity="1">2010</text><text text-anchor="end" transform="translate(232.83333333333334,7) rotate(270) translate(0,4)" font-family="sans-serif" font-size="12px" fill="#000" opacity="1">2011</text><text text-anchor="end" transform="translate(299.5,7) rotate(270) translate(0,4)" font-family="sans-serif" font-size="12px" fill="#000" opacity="1">2012</text><text text-anchor="end" transform="translate(366.1666666666667,7) rotate(270) translate(0,4)" font-family="sans-serif" font-size="12px" fill="#000" opacity="1">2013</text><text text-anchor="end" transform="translate(432.8333333333333,7) rotate(270) translate(0,4)" font-family="sans-serif" font-size="12px" fill="#000" opacity="1">2014</text><text text-anchor="end" transform="translate(499.5,7) rotate(270) translate(0,4)" font-family="sans-serif" font-size="12px" fill="#000" opacity="1">2015</text><text text-anchor="end" transform="translate(566.1666666666667,7) rotate(270) translate(0,4)" font-family="sans-serif" font-size="12px" fill="#000" opacity="1">2016</text><text text-anchor="end" transform="translate(632.8333333333334,7) rotate(270) translate(0,4)" font-family="sans-serif" font-size="12px" fill="#000" opacity="1">2017</text><text text-anchor="end" transform="translate(699.5000000000001,7) rotate(270) translate(0,4)" font-family="sans-serif" font-size="12px" fill="#000" opacity="1">2018</text><text text-anchor="end" transform="translate(766.1666666666667,7) rotate(270) translate(0,4)" font-family="sans-serif" font-size="12px" fill="#000" opacity="1">2019</text></g><g class="mark-rule role-axis-domain" pointer-events="none"><line transform="translate(0,0)" x2="800" y2="0" stroke="#888" stroke-width="1" opacity="1"/></g><g class="mark-text role-axis-title" pointer-events="none"><text text-anchor="middle" transform="translate(400,46.6953125)" font-family="sans-serif" font-size="12px" font-weight="bold" fill="#000" opacity="1">Ano</text></g></g><path class="foreground" aria-hidden="true" d="" pointer-events="none" display="none"/></g></g><g class="mark-group role-axis" role="graphics-symbol" aria-roledescription="axis" aria-label="Y-axis titled 'Incremento' for a linear scale with values from 0 to 6,000"><g transform="translate(0.5,0.5)"><path class="background" aria-hidden="true" d="M0,0h0v0h0Z" pointer-events="none"/><g><g class="mark-rule role-axis-tick" pointer-events="none"><line transform="translate(0,300)" x2="-5" y2="0" stroke="#888" stroke-width="1" opacity="1"/><line transform="translate(0,250)" x2="-5" y2="0" stroke="#888" stroke-width="1" opacity="1"/><line transform="translate(0,200)" x2="-5" y2="0" stroke="#888" stroke-width="1" opacity="1"/><line transform="translate(0,150)" x2="-5" y2="0" stroke="#888" stroke-width="1" opacity="1"/><line transform="translate(0,100)" x2="-5" y2="0" stroke="#888" stroke-width="1" opacity="1"/><line transform="translate(0,50)" x2="-5" y2="0" stroke="#888" stroke-width="1" opacity="1"/><line transform="translate(0,0)" x2="-5" y2="0" stroke="#888" stroke-width="1" opacity="1"/></g><g class="mark-text role-axis-label" pointer-events="none"><text text-anchor="end" transform="translate(-7,304)" font-family="sans-serif" font-size="12px" fill="#000" opacity="1">0</text><text text-anchor="end" transform="translate(-7,254)" font-family="sans-serif" font-size="12px" fill="#000" opacity="1">1,000</text><text text-anchor="end" transform="translate(-7,204.00000000000003)" font-family="sans-serif" font-size="12px" fill="#000" opacity="1">2,000</text><text text-anchor="end" transform="translate(-7,154)" font-family="sans-serif" font-size="12px" fill="#000" opacity="1">3,000</text><text text-anchor="end" transform="translate(-7,104.00000000000001)" font-family="sans-serif" font-size="12px" fill="#000" opacity="1">4,000</text><text text-anchor="end" transform="translate(-7,53.999999999999986)" font-family="sans-serif" font-size="12px" fill="#000" opacity="1">5,000</text><text text-anchor="end" transform="translate(-7,4)" font-family="sans-serif" font-size="12px" fill="#000" opacity="1">6,000</text></g><g class="mark-rule role-axis-domain" pointer-events="none"><line transform="translate(0,300)" x2="0" y2="-300" stroke="#888" stroke-width="1" opacity="1"/></g><g class="mark-text role-axis-title" pointer-events="none"><text text-anchor="middle" transform="translate(-41.029296875,150) rotate(-90) translate(0,-3)" font-family="sans-serif" font-size="12px" font-weight="bold" fill="#000" opacity="1">Incremento</text></g></g><path class="foreground" aria-hidden="true" d="" pointer-events="none" display="none"/></g></g><g class="mark-symbol role-mark layer_0_layer_0_marks" role="graphics-symbol" aria-roledescription="symbol mark container"><path transform="translate(33.333333333333336,127.525)" d="M2.7386127875258306,0A2.7386127875258306,2.7386127875258306,0,1,1,-2.7386127875258306,0A2.7386127875258306,2.7386127875258306,0,1,1,2.7386127875258306,0" stroke="#4c78a8" stroke-width="2" opacity="0.7"/><path transform="translate(33.333333333333336,15.655000000000074)" d="M2.7386127875258306,0A2.7386127875258306,2.7386127875258306,0,1,1,-2.7386127875258306,0A2.7386127875258306,2.7386127875258306,0,1,1,2.7386127875258306,0" stroke="#4c78a8" stroke-width="2" opacity="0.7"/><path transform="translate(100,120.425)" d="M2.7386127875258306,0A2.7386127875258306,2.7386127875258306,0,1,1,-2.7386127875258306,0A2.7386127875258306,2.7386127875258306,0,1,1,2.7386127875258306,0" stroke="#4c78a8" stroke-width="2" opacity="0.7"/><path transform="translate(166.66666666666669,260.98999999999995)" d="M2.7386127875258306,0A2.7386127875258306,2.7386127875258306,0,1,1,-2.7386127875258306,0A2.7386127875258306,2.7386127875258306,0,1,1,2.7386127875258306,0" stroke="#4c78a8" stroke-width="2" opacity="0.7"/><path transform="translate(166.66666666666669,132.78500000000005)" d="M2.7386127875258306,0A2.7386127875258306,2.7386127875258306,0,1,1,-2.7386127875258306,0A2.7386127875258306,2.7386127875258306,0,1,1,2.7386127875258306,0" stroke="#4c78a8" stroke-width="2" opacity="0.7"/><path transform="translate(166.66666666666669,297.245)" d="M2.7386127875258306,0A2.7386127875258306,2.7386127875258306,0,1,1,-2.7386127875258306,0A2.7386127875258306,2.7386127875258306,0,1,1,2.7386127875258306,0" stroke="#4c78a8" stroke-width="2" opacity="0.7"/><path transform="translate(233.33333333333334,179.025)" d="M2.7386127875258306,0A2.7386127875258306,2.7386127875258306,0,1,1,-2.7386127875258306,0A2.7386127875258306,2.7386127875258306,0,1,1,2.7386127875258306,0" stroke="#4c78a8" stroke-width="2" opacity="0.7"/><path transform="translate(300,214.28000000000006)" d="M2.7386127875258306,0A2.7386127875258306,2.7386127875258306,0,1,1,-2.7386127875258306,0A2.7386127875258306,2.7386127875258306,0,1,1,2.7386127875258306,0" stroke="#4c78a8" stroke-width="2" opacity="0.7"/><path transform="translate(366.6666666666667,195.46499999999995)" d="M2.7386127875258306,0A2.7386127875258306,2.7386127875258306,0,1,1,-2.7386127875258306,0A2.7386127875258306,2.7386127875258306,0,1,1,2.7386127875258306,0" stroke="#4c78a8" stroke-width="2" opacity="0.7"/><path transform="translate(433.3333333333333,244.79000000000002)" d="M2.7386127875258306,0A2.7386127875258306,2.7386127875258306,0,1,1,-2.7386127875258306,0A2.7386127875258306,2.7386127875258306,0,1,1,2.7386127875258306,0" stroke="#4c78a8" stroke-width="2" opacity="0.7"/><path transform="translate(433.3333333333333,210.655)" d="M2.7386127875258306,0A2.7386127875258306,2.7386127875258306,0,1,1,-2.7386127875258306,0A2.7386127875258306,2.7386127875258306,0,1,1,2.7386127875258306,0" stroke="#4c78a8" stroke-width="2" opacity="0.7"/><path transform="translate(500,225.39999999999998)" d="M2.7386127875258306,0A2.7386127875258306,2.7386127875258306,0,1,1,-2.7386127875258306,0A2.7386127875258306,2.7386127875258306,0,1,1,2.7386127875258306,0" stroke="#4c78a8" stroke-width="2" opacity="0.7"/><path transform="translate(500,184.57999999999998)" d="M2.7386127875258306,0A2.7386127875258306,2.7386127875258306,0,1,1,-2.7386127875258306,0A2.7386127875258306,2.7386127875258306,0,1,1,2.7386127875258306,0" stroke="#4c78a8" stroke-width="2" opacity="0.7"/><path transform="translate(566.6666666666667,162.785)" d="M2.7386127875258306,0A2.7386127875258306,2.7386127875258306,0,1,1,-2.7386127875258306,0A2.7386127875258306,2.7386127875258306,0,1,1,2.7386127875258306,0" stroke="#4c78a8" stroke-width="2" opacity="0.7"/><path transform="translate(633.3333333333334,169.82500000000002)" d="M2.7386127875258306,0A2.7386127875258306,2.7386127875258306,0,1,1,-2.7386127875258306,0A2.7386127875258306,2.7386127875258306,0,1,1,2.7386127875258306,0" stroke="#4c78a8" stroke-width="2" opacity="0.7"/><path transform="translate(700.0000000000001,164.91499999999996)" d="M2.7386127875258306,0A2.7386127875258306,2.7386127875258306,0,1,1,-2.7386127875258306,0A2.7386127875258306,2.7386127875258306,0,1,1,2.7386127875258306,0" stroke="#4c78a8" stroke-width="2" opacity="0.7"/><path transform="translate(766.6666666666667,76.5150000000001)" d="M2.7386127875258306,0A2.7386127875258306,2.7386127875258306,0,1,1,-2.7386127875258306,0A2.7386127875258306,2.7386127875258306,0,1,1,2.7386127875258306,0" stroke="#4c78a8" stroke-width="2" opacity="0.7"/></g><g class="mark-rule role-mark layer_0_layer_1_layer_0_marks" role="graphics-symbol" aria-roledescription="rule mark container"><line transform="translate(33.333333333333336,295.05)" x2="0" y2="-10.009999999999991" stroke="black"/><line transform="translate(100,297.655)" x2="0" y2="-3.284999999999968" stroke="black"/><line transform="translate(166.66666666666669,296.455)" x2="0" y2="-8.419999999999959" stroke="black"/><line transform="translate(233.33333333333334,299.185)" x2="0" y2="-5.710000000000036" stroke="black"/><line transform="translate(300,299.055)" x2="0" y2="-4.470000000000027" stroke="black"/><line transform="translate(366.6666666666667,298.81)" x2="0" y2="-6.264999999999986" stroke="black"/><line transform="translate(433.3333333333333,298.56)" x2="0" y2="-8.105000000000018" stroke="black"/><line transform="translate(500,299.035)" x2="0" y2="-6.815000000000055" stroke="black"/><line transform="translate(566.6666666666667,299.37)" x2="0" y2="-10.879999999999995" stroke="black"/><line transform="translate(633.3333333333334,299.055)" x2="0" y2="-5.40500000000003" stroke="black"/><line transform="translate(700.0000000000001,298.825)" x2="0" y2="-5.4150000000000205" stroke="black"/><line transform="translate(766.6666666666667,298.445)" x2="0" y2="-12.634999999999991" stroke="black"/></g><g class="mark-rule role-mark layer_0_layer_1_layer_1_marks" role="graphics-symbol" aria-roledescription="rule mark container"><line transform="translate(33.333333333333336,237.08999999999997)" x2="0" y2="0" stroke="black"/><line transform="translate(100,258.53999999999996)" x2="0" y2="-6.659999999999968" stroke="black"/><line transform="translate(166.66666666666669,271.10499999999996)" x2="0" y2="0" stroke="black"/><line transform="translate(233.33333333333334,261.01000000000005)" x2="0" y2="-14.400000000000034" stroke="black"/><line transform="translate(300,264.76)" x2="0" y2="-4.5" stroke="black"/><line transform="translate(366.6666666666667,251)" x2="0" y2="-6.314999999999998" stroke="black"/><line transform="translate(433.3333333333333,261.425)" x2="0" y2="0" stroke="black"/><line transform="translate(500,251.425)" x2="0" y2="0" stroke="black"/><line transform="translate(566.6666666666667,239.98499999999999)" x2="0" y2="-9.174999999999983" stroke="black"/><line transform="translate(633.3333333333334,234.60000000000002)" x2="0" y2="-15.310000000000002" stroke="black"/><line transform="translate(700.0000000000001,237.50000000000003)" x2="0" y2="-12.06000000000003" stroke="black"/><line transform="translate(766.6666666666667,220.445)" x2="0" y2="-15.699999999999989" stroke="black"/></g><g class="mark-rect role-mark layer_1_layer_0_marks" role="graphics-symbol" aria-roledescription="rect mark container"><path d="M8.333333333333336,237.08999999999997h50v47.950000000000045h-50Z" fill="rgb(194, 218, 237)"/><path d="M75,258.53999999999996h50v35.83000000000004h-50Z" fill="rgb(178, 211, 232)"/><path d="M141.66666666666669,271.10499999999996h50v16.930000000000064h-50Z" fill="rgb(160, 202, 227)"/><path d="M208.33333333333334,261.01000000000005h50v32.46499999999992h-50Z" fill="rgb(141, 192, 221)"/><path d="M275,264.76h50v29.82499999999999h-50Z" fill="rgb(120, 180, 216)"/><path d="M341.6666666666667,251h50v41.545000000000016h-50Z" fill="rgb(101, 169, 210)"/><path d="M408.3333333333333,261.425h50v29.029999999999973h-50Z" fill="rgb(83, 156, 204)"/><path d="M475,251.425h50v40.79499999999996h-50Z" fill="rgb(66, 143, 197)"/><path d="M541.6666666666667,239.98499999999999h50v48.505000000000024h-50Z" fill="rgb(51, 130, 190)"/><path d="M608.3333333333334,234.60000000000002h50v59.049999999999955h-50Z" fill="rgb(37, 117, 181)"/><path d="M675.0000000000001,237.50000000000003h50v55.90999999999994h-50Z" fill="rgb(26, 102, 172)"/><path d="M741.6666666666667,220.445h50v65.36500000000001h-50Z" fill="rgb(16, 88, 159)"/></g><g class="mark-rect role-mark layer_1_layer_1_marks" role="graphics-symbol" aria-roledescription="rect mark container"><path d="M8.333333333333336,265.78499999999997h50v1h-50Z" fill="white" opacity="0.7"/><path d="M75,282.03499999999997h50v1h-50Z" fill="white" opacity="0.7"/><path d="M141.66666666666669,277.445h50v1h-50Z" fill="white" opacity="0.7"/><path d="M208.33333333333334,282.675h50v1h-50Z" fill="white" opacity="0.7"/><path d="M275,284.05h50v1h-50Z" fill="white" opacity="0.7"/><path d="M341.6666666666667,285.33h50v1h-50Z" fill="white" opacity="0.7"/><path d="M408.3333333333333,281.635h50v1h-50Z" fill="white" opacity="0.7"/><path d="M475,287.99h50v1h-50Z" fill="white" opacity="0.7"/><path d="M541.6666666666667,280.525h50v1h-50Z" fill="white" opacity="0.7"/><path d="M608.3333333333334,285.285h50v1h-50Z" fill="white" opacity="0.7"/><path d="M675.0000000000001,275.37h50v1h-50Z" fill="white" opacity="0.7"/><path d="M741.6666666666667,262.605h50v1h-50Z" fill="white" opacity="0.7"/></g><g class="mark-group role-title"><g transform="translate(400,-23)"><path class="background" aria-hidden="true" d="M0,0h0v0h0Z" pointer-events="none"/><g><g class="mark-text role-title-text" role="graphics-symbol" aria-roledescription="title" aria-label="Title text 'Incremento de Desmatamento Anual'" pointer-events="none"><text text-anchor="middle" transform="translate(0,10)" font-family="sans-serif" font-size="13px" font-weight="bold" fill="#000" opacity="1">Incremento de Desmatamento Anual</text></g></g><path class="foreground" aria-hidden="true" d="" pointer-events="none" display="none"/></g></g></g><path class="foreground" aria-hidden="true" d="" display="none"/></g></g></g></svg>